<svg width="24" height="25" viewBox="0 0 24 25" fill="none" xmlns="http://www.w3.org/2000/svg">
<path d="M12 19.5C14.2091 19.5 16 17.7091 16 15.5C16 13.2909 14.2091 11.5 12 11.5C9.79086 11.5 8 13.2909 8 15.5C8 17.7091 9.79086 19.5 12 19.5Z" stroke="#1A1A1A" stroke-width="1.5" stroke-miterlimit="10" stroke-linecap="round" stroke-linejoin="round"/>
<path d="M10.4404 15.5L11.0904 16.15C11.2804 16.34 11.5904 16.35 11.7804 16.16L13.5604 14.52" stroke="#1A1A1A" stroke-width="1.5" stroke-linecap="round" stroke-linejoin="round"/>
<path d="M8.99983 22.5H14.9998C19.0198 22.5 19.7398 20.89 19.9498 18.93L20.6998 12.93C20.9698 10.49 20.2698 8.5 15.9998 8.5H7.99983C3.72983 8.5 3.02983 10.49 3.29983 12.93L4.04983 18.93C4.25983 20.89 4.97983 22.5 8.99983 22.5Z" stroke="#1A1A1A" stroke-width="1.5" stroke-miterlimit="10" stroke-linecap="round" stroke-linejoin="round"/>
<path d="M7.5 8.17001V7.20001C7.5 4.95001 9.31 2.74001 11.56 2.53001C14.24 2.27001 16.5 4.38001 16.5 7.01001V8.39001" stroke="#1A1A1A" stroke-width="1.5" stroke-miterlimit="10" stroke-linecap="round" stroke-linejoin="round"/>
</svg>
