<svg width="30" height="31" viewBox="0 0 30 31" fill="none" xmlns="http://www.w3.org/2000/svg">
<path d="M4.98612 18.8255L3.08613 16.9255C2.31113 16.1505 2.31113 14.8755 3.08613 14.1005L4.98612 12.2005C5.31112 11.8755 5.57362 11.238 5.57362 10.788V8.10045C5.57362 7.00045 6.47363 6.10048 7.57363 6.10048H10.2611C10.7111 6.10048 11.3486 5.83801 11.6736 5.51301L13.5736 3.61299C14.3486 2.83799 15.6236 2.83799 16.3986 3.61299L18.2986 5.51301C18.6236 5.83801 19.2611 6.10048 19.7111 6.10048H22.3986C23.4986 6.10048 24.3986 7.00045 24.3986 8.10045V10.788C24.3986 11.238 24.6611 11.8755 24.9861 12.2005L26.8861 14.1005C27.6611 14.8755 27.6611 16.1505 26.8861 16.9255L24.9861 18.8255C24.6611 19.1505 24.3986 19.788 24.3986 20.238V22.9254C24.3986 24.0254 23.4986 24.9255 22.3986 24.9255H19.7111C19.2611 24.9255 18.6236 25.188 18.2986 25.513L16.3986 27.413C15.6236 28.188 14.3486 28.188 13.5736 27.413L11.6736 25.513C11.3486 25.188 10.7111 24.9255 10.2611 24.9255H7.57363C6.47363 24.9255 5.57362 24.0254 5.57362 22.9254V20.238C5.57362 19.7755 5.31112 19.138 4.98612 18.8255Z" stroke="#1A1A1A" stroke-width="1.5" stroke-linecap="round" stroke-linejoin="round"/>
<path d="M11.25 19.25L18.75 11.75" stroke="#1A1A1A" stroke-width="1.5" stroke-linecap="round" stroke-linejoin="round"/>
<path d="M18.1181 18.625H18.1294" stroke="#1A1A1A" stroke-width="2" stroke-linecap="round" stroke-linejoin="round"/>
<path d="M11.8681 12.375H11.8794" stroke="#1A1A1A" stroke-width="2" stroke-linecap="round" stroke-linejoin="round"/>
</svg>
