<svg width="18" height="19" viewBox="0 0 18 19" fill="none" xmlns="http://www.w3.org/2000/svg">
<path d="M3.75 8C2.925 8 2.25 8.675 2.25 9.5C2.25 10.325 2.925 11 3.75 11C4.575 11 5.25 10.325 5.25 9.5C5.25 8.675 4.575 8 3.75 8Z" stroke="#1A1A1A"/>
<path d="M14.25 8C13.425 8 12.75 8.675 12.75 9.5C12.75 10.325 13.425 11 14.25 11C15.075 11 15.75 10.325 15.75 9.5C15.75 8.675 15.075 8 14.25 8Z" stroke="#1A1A1A"/>
<path d="M9 8C8.175 8 7.5 8.675 7.5 9.5C7.5 10.325 8.175 11 9 11C9.825 11 10.5 10.325 10.5 9.5C10.5 8.675 9.825 8 9 8Z" stroke="#1A1A1A"/>
</svg>
