<svg width="31" height="31" viewBox="0 0 31 31" fill="none" xmlns="http://www.w3.org/2000/svg">
<path d="M9.125 26.25C11 27.375 13.25 28 15.5 28C22.375 28 28 22.375 28 15.5C28 8.625 22.375 3 15.5 3C8.625 3 3 8.625 3 15.5C3 17.75 3.625 19.875 4.625 21.75L3.44044 26.306C3.24572 27.0549 3.93892 27.7317 4.68299 27.5191L9.125 26.25Z" stroke="#F9F9F9" stroke-width="1.5" stroke-miterlimit="10" stroke-linecap="round" stroke-linejoin="round"/>
<path d="M21.125 19.0606C21.125 19.2631 21.0799 19.4713 20.9842 19.6738C20.8884 19.8763 20.7645 20.0675 20.6011 20.2475C20.3251 20.5513 20.0208 20.7706 19.6772 20.9113C19.3392 21.0519 18.973 21.125 18.5787 21.125C18.0041 21.125 17.39 20.99 16.7422 20.7144C16.0943 20.4388 15.4465 20.0675 14.8043 19.6006C14.1564 19.1281 13.5424 18.605 12.9565 18.0256C12.3763 17.4406 11.8523 16.8275 11.3848 16.1863C10.9228 15.545 10.551 14.9038 10.2806 14.2681C10.0102 13.6269 9.875 13.0137 9.875 12.4287C9.875 12.0462 9.9426 11.6806 10.0778 11.3431C10.213 11 10.4271 10.685 10.7257 10.4038C11.0862 10.0494 11.4805 9.875 11.8974 9.875C12.0551 9.875 12.2129 9.90875 12.3537 9.97625C12.5002 10.0438 12.6298 10.145 12.7312 10.2913L14.0381 12.1306C14.1395 12.2713 14.2128 12.4006 14.2635 12.5244C14.3142 12.6425 14.3423 12.7606 14.3423 12.8675C14.3423 13.0025 14.3029 13.1375 14.224 13.2669C14.1508 13.3962 14.0438 13.5312 13.9086 13.6662L13.4804 14.1106C13.4184 14.1725 13.3903 14.2456 13.3903 14.3356C13.3903 14.3806 13.3959 14.42 13.4072 14.465C13.4241 14.51 13.441 14.5437 13.4522 14.5775C13.5536 14.7631 13.7283 15.005 13.9762 15.2975C14.2297 15.59 14.5001 15.8881 14.793 16.1863C15.0972 16.4844 15.3901 16.76 15.6887 17.0131C15.9817 17.2606 16.2239 17.4294 16.4154 17.5306C16.4436 17.5419 16.4774 17.5587 16.5168 17.5756C16.5619 17.5925 16.607 17.5981 16.6577 17.5981C16.7534 17.5981 16.8267 17.5644 16.8886 17.5025L17.3168 17.0806C17.4576 16.94 17.5928 16.8331 17.7224 16.7656C17.852 16.6869 17.9815 16.6475 18.1224 16.6475C18.2294 16.6475 18.3421 16.67 18.466 16.7206C18.5899 16.7713 18.7195 16.8444 18.8604 16.94L20.725 18.2619C20.8715 18.3631 20.9729 18.4812 21.0349 18.6219C21.0912 18.7625 21.125 18.9031 21.125 19.0606Z" stroke="#F9F9F9" stroke-width="1.5" stroke-miterlimit="10"/>
</svg>
