<svg width="62" height="35" viewBox="0 0 62 35" fill="none" xmlns="http://www.w3.org/2000/svg">
<g clip-path="url(#clip0_1_2154)">
<path d="M4.66474 34.9826L4.59949 34.8617C5.47436 34.3875 6.56318 33.7975 7.13188 32.8291C7.69249 31.8746 7.70507 30.5783 7.16471 29.4463C6.70485 28.4828 5.86011 27.6196 4.72183 26.95C4.49731 26.8179 4.26162 26.6928 4.03368 26.5717C3.48273 26.2791 2.91303 25.9765 2.44327 25.5472C1.79627 24.956 1.30673 23.9638 1.6716 23.08C1.7916 22.7979 1.98812 22.5552 2.23885 22.3794C2.48958 22.2036 2.78448 22.1017 3.09005 22.0854L3.09779 22.2227C2.81785 22.2376 2.54767 22.3308 2.31792 22.4918C2.08817 22.6528 1.90805 22.8751 1.798 23.1334C1.45894 23.9547 1.92412 24.8867 2.53572 25.4456C2.99263 25.8632 3.55453 26.1616 4.09793 26.4502C4.32716 26.5719 4.5642 26.6979 4.7913 26.8314C5.95326 27.515 6.81677 28.3986 7.28847 29.3869C7.84827 30.5597 7.83358 31.9054 7.25012 32.8989C6.66204 33.9002 5.5546 34.5004 4.66474 34.9826Z" fill="#F1F1F1"/>
<path d="M3.95927 22.81C4.62227 22.81 5.15974 22.5484 5.15974 22.2257C5.15974 21.903 4.62227 21.6414 3.95927 21.6414C3.29626 21.6414 2.75879 21.903 2.75879 22.2257C2.75879 22.5484 3.29626 22.81 3.95927 22.81Z" fill="#F1F1F1"/>
<path d="M4.9202 26.6596C5.58321 26.6596 6.12068 26.398 6.12068 26.0753C6.12068 25.7526 5.58321 25.491 4.9202 25.491C4.2572 25.491 3.71973 25.7526 3.71973 26.0753C3.71973 26.398 4.2572 26.6596 4.9202 26.6596Z" fill="#F1F1F1"/>
<path d="M2.72489 27.2782C3.3879 27.2782 3.92537 27.0166 3.92537 26.6939C3.92537 26.3712 3.3879 26.1096 2.72489 26.1096C2.06189 26.1096 1.52441 26.3712 1.52441 26.6939C1.52441 27.0166 2.06189 27.2782 2.72489 27.2782Z" fill="#F1F1F1"/>
<path d="M6.15458 30.5092C6.81758 30.5092 7.35506 30.2476 7.35506 29.9249C7.35506 29.6022 6.81758 29.3406 6.15458 29.3406C5.49157 29.3406 4.9541 29.6022 4.9541 29.9249C4.9541 30.2476 5.49157 30.5092 6.15458 30.5092Z" fill="#F1F1F1"/>
<path d="M8.55595 30.5092C9.21895 30.5092 9.75642 30.2476 9.75642 29.9249C9.75642 29.6022 9.21895 29.3406 8.55595 29.3406C7.89294 29.3406 7.35547 29.6022 7.35547 29.9249C7.35547 30.2476 7.89294 30.5092 8.55595 30.5092Z" fill="#F1F1F1"/>
<path d="M61.9996 1.06055H23.3926V19.4187H61.9996V1.06055Z" fill="#E6E6E6"/>
<path d="M60.8962 2.63501H24.4971V17.9518H60.8962V2.63501Z" fill="white"/>
<path d="M61.9831 0H23.376V1.64359H61.9831V0Z" fill="#FFEAD7"/>
<path d="M24.595 1.06483C24.7629 1.06483 24.899 0.928443 24.899 0.760199C24.899 0.591955 24.7629 0.455566 24.595 0.455566C24.4271 0.455566 24.291 0.591955 24.291 0.760199C24.291 0.928443 24.4271 1.06483 24.595 1.06483Z" fill="white"/>
<path d="M25.7493 1.06483C25.9172 1.06483 26.0533 0.928443 26.0533 0.760199C26.0533 0.591955 25.9172 0.455566 25.7493 0.455566C25.5814 0.455566 25.4453 0.591955 25.4453 0.760199C25.4453 0.928443 25.5814 1.06483 25.7493 1.06483Z" fill="white"/>
<path d="M26.9026 1.06483C27.0705 1.06483 27.2066 0.928443 27.2066 0.760199C27.2066 0.591955 27.0705 0.455566 26.9026 0.455566C26.7347 0.455566 26.5986 0.591955 26.5986 0.760199C26.5986 0.928443 26.7347 1.06483 26.9026 1.06483Z" fill="white"/>
<path d="M40.7772 6.26978C40.7381 6.26978 40.7006 6.28532 40.673 6.313C40.6454 6.34068 40.6299 6.37822 40.6299 6.41736C40.6299 6.4565 40.6454 6.49404 40.673 6.52171C40.7006 6.54939 40.7381 6.56494 40.7772 6.56494H48.8583C48.8974 6.56494 48.9349 6.54939 48.9625 6.52171C48.9901 6.49404 49.0056 6.4565 49.0056 6.41736C49.0056 6.37822 48.9901 6.34068 48.9625 6.313C48.9349 6.28532 48.8974 6.26978 48.8583 6.26978H40.7772Z" fill="#E6E6E6"/>
<path d="M40.7768 7.15552C40.7378 7.1556 40.7005 7.17119 40.6729 7.19886C40.6454 7.22652 40.6299 7.26401 40.6299 7.3031C40.6299 7.34219 40.6454 7.37968 40.6729 7.40734C40.7005 7.43501 40.7378 7.4506 40.7768 7.45068H44.9025C44.9415 7.4506 44.9788 7.43501 45.0064 7.40734C45.0339 7.37968 45.0494 7.34219 45.0494 7.3031C45.0494 7.26401 45.0339 7.22652 45.0064 7.19886C44.9788 7.17119 44.9415 7.1556 44.9025 7.15552H40.7768Z" fill="#E6E6E6"/>
<path d="M40.574 11.4419C40.535 11.4419 40.4975 11.4574 40.4699 11.4851C40.4423 11.5128 40.4268 11.5503 40.4268 11.5895C40.4268 11.6286 40.4423 11.6662 40.4699 11.6938C40.4975 11.7215 40.535 11.7371 40.574 11.7371H55.7263C55.7654 11.7371 55.8028 11.7215 55.8305 11.6938C55.8581 11.6662 55.8736 11.6286 55.8736 11.5895C55.8736 11.5503 55.8581 11.5128 55.8305 11.4851C55.8028 11.4574 55.7654 11.4419 55.7263 11.4419H40.574Z" fill="#E6E6E6"/>
<path d="M40.5737 12.3274C40.5347 12.3275 40.4973 12.3431 40.4698 12.3707C40.4422 12.3984 40.4268 12.4359 40.4268 12.475C40.4268 12.5141 40.4422 12.5516 40.4698 12.5792C40.4973 12.6069 40.5347 12.6225 40.5737 12.6226H51.7704C51.8094 12.6225 51.8468 12.6069 51.8743 12.5792C51.9019 12.5516 51.9174 12.5141 51.9174 12.475C51.9174 12.4359 51.9019 12.3984 51.8743 12.3707C51.8468 12.3431 51.8094 12.3275 51.7704 12.3274H40.5737Z" fill="#E6E6E6"/>
<path d="M40.5737 13.1929C40.5347 13.193 40.4973 13.2085 40.4698 13.2362C40.4422 13.2639 40.4268 13.3014 40.4268 13.3405C40.4268 13.3795 40.4422 13.417 40.4698 13.4447C40.4973 13.4724 40.5347 13.488 40.5737 13.488H55.726C55.765 13.488 55.8024 13.4724 55.8299 13.4447C55.8575 13.417 55.873 13.3795 55.873 13.3405C55.873 13.3014 55.8575 13.2639 55.8299 13.2362C55.8024 13.2085 55.765 13.193 55.726 13.1929H40.5737Z" fill="#E6E6E6"/>
<path d="M40.5737 14.0784C40.5347 14.0785 40.4973 14.094 40.4698 14.1217C40.4422 14.1494 40.4268 14.1869 40.4268 14.226C40.4268 14.265 40.4422 14.3025 40.4698 14.3302C40.4973 14.3579 40.5347 14.3734 40.5737 14.3735H51.7704C51.8094 14.3734 51.8468 14.3579 51.8743 14.3302C51.9019 14.3025 51.9174 14.265 51.9174 14.226C51.9174 14.1869 51.9019 14.1494 51.8743 14.1217C51.8468 14.094 51.8094 14.0785 51.7704 14.0784H40.5737Z" fill="#E6E6E6"/>
<path d="M32.6525 12.0406C33.3608 12.0406 33.9349 11.4653 33.9349 10.7556C33.9349 10.0458 33.3608 9.47046 32.6525 9.47046C31.9443 9.47046 31.3701 10.0458 31.3701 10.7556C31.3701 11.4653 31.9443 12.0406 32.6525 12.0406Z" fill="#A0616A"/>
<path d="M32.2464 9.72748C32.2464 9.72748 32.8449 9.88811 33.1548 9.95237C33.4647 10.0166 33.4327 9.83457 33.4327 9.83457C33.4327 9.83457 33.8388 9.88811 33.8174 9.84528C33.796 9.80244 33.9884 9.57755 33.764 9.32053C33.5395 9.06351 33.6037 8.87075 33.6037 8.87075H33.4113L33.3579 8.79578H33.0586C33.0586 8.79578 32.7278 8.50508 32.14 8.59075C31.5523 8.67642 30.8572 8.90287 30.7931 9.25627C30.7844 9.30421 30.7729 9.35746 30.7596 9.41371C30.5989 10.0937 30.9404 10.7299 31.2946 11.3318C31.3816 11.4797 31.8027 11.8023 31.7919 11.581C31.7811 11.3597 31.4129 10.8626 31.6694 10.8305C31.9258 10.7984 32.364 10.1451 32.2464 9.72748Z" fill="#2F2E41"/>
<path d="M31.9244 14.9102C31.6768 14.8903 31.4313 14.8499 31.1904 14.7893L31.2039 14.533L31.3162 12.4954L31.3172 12.4797H33.5762L33.9307 14.3559L33.9786 14.6091C33.885 14.6456 33.7904 14.6799 33.6937 14.7101C33.6927 14.7101 33.6927 14.7112 33.6917 14.7112C33.5575 14.7528 33.4214 14.7893 33.2841 14.8195C33.1016 14.859 32.9169 14.8875 32.7311 14.9049C32.5874 14.9192 32.443 14.9262 32.2986 14.9258C32.1739 14.9258 32.0481 14.9206 31.9244 14.9102Z" fill="#FFEAD7"/>
<path d="M30.4725 14.5477C30.379 14.5071 30.2885 14.4633 30.1991 14.4175L30.1606 14.3977C30.1347 14.3841 30.1077 14.3695 30.0817 14.355C30.0463 14.3352 30.012 14.3154 29.9787 14.2956C29.9465 14.2768 29.9132 14.257 29.881 14.2372C29.8789 14.2362 29.8779 14.2352 29.8758 14.2352C29.7635 14.1633 29.6533 14.0893 29.5473 14.0091C29.5296 13.9956 29.512 13.982 29.4943 13.9685L29.4756 13.6684L29.5026 13.6518L31.3167 12.4954L31.3416 12.4798L31.3437 12.4788L31.5994 12.4798V13.434C31.7439 13.6434 31.8416 14.082 31.9019 14.656C31.9103 14.7383 31.9175 14.8227 31.9248 14.9102C31.6773 14.8904 31.4318 14.8499 31.1909 14.7894C31.1649 14.7842 31.1399 14.7779 31.1139 14.7706C30.9624 14.7309 30.8132 14.6829 30.6669 14.6269C30.6222 14.6102 30.5786 14.5925 30.5349 14.5748L30.5307 14.5727C30.512 14.5644 30.4913 14.556 30.4725 14.5477Z" fill="#2F2E41"/>
<path d="M30.0817 14.355C30.0463 14.3352 30.012 14.3154 29.9787 14.2956C29.9465 14.2768 29.9132 14.257 29.881 14.2373C29.8789 14.2362 29.8779 14.2352 29.8758 14.2352C29.7635 14.1633 29.6533 14.0893 29.5473 14.0091C29.5296 13.9956 29.512 13.982 29.4943 13.9685C29.486 13.9612 29.4777 13.9549 29.4683 13.9476C29.4018 13.8966 29.3373 13.8435 29.2749 13.7872C29.2718 13.7851 29.2697 13.782 29.2666 13.7799C29.3296 13.7314 29.4002 13.6937 29.4756 13.6685L29.5494 13.6903L30.0754 13.8487L30.0785 14.0622L30.0817 14.355Z" fill="#2F2E41"/>
<path d="M34.511 14.358C34.4798 14.3747 34.4487 14.3914 34.4175 14.407C34.4102 14.4112 34.404 14.4143 34.3977 14.4174C34.3561 14.4383 34.3156 14.4591 34.274 14.4789C34.273 14.4799 34.2709 14.4799 34.2709 14.481C34.2688 14.482 34.2657 14.4831 34.2636 14.4841C34.1701 14.5289 34.0755 14.5706 33.9788 14.6091C33.8852 14.6456 33.7906 14.68 33.694 14.7102C33.6929 14.7102 33.6929 14.7112 33.6919 14.7112C33.5578 14.7529 33.4216 14.7893 33.2843 14.8195C33.2828 14.734 33.294 14.6486 33.3176 14.5664L33.3186 14.5518L33.4081 13.1017L33.2885 12.4798L33.6316 12.4287L35.5184 13.4465C35.5184 13.4465 35.3105 13.6549 34.457 14.0987C34.3815 14.1379 34.4923 14.2685 34.511 14.358Z" fill="#2F2E41"/>
<path d="M32.7086 14.6548C32.5734 14.6673 32.4362 14.6736 32.299 14.6736C32.1659 14.6736 32.0339 14.6684 31.9018 14.6559C31.9102 14.7382 31.9174 14.8226 31.9247 14.9101C32.0484 14.9205 32.1742 14.9257 32.299 14.9257C32.4434 14.9261 32.5877 14.9191 32.7314 14.9048C32.9173 14.8874 33.102 14.8589 33.2845 14.8194C33.2829 14.7338 33.2941 14.6485 33.3178 14.5663L33.3188 14.5517C33.1181 14.6006 32.9142 14.6351 32.7086 14.6548ZM36.6371 8.80849C36.4174 8.17613 36.0627 7.5994 35.5978 7.11852C35.1328 6.63763 34.5688 6.26417 33.945 6.02417C33.3212 5.78417 32.6527 5.6834 31.9861 5.7289C31.3195 5.77441 30.6707 5.96508 30.0852 6.28762C29.4997 6.61017 28.9914 7.05683 28.5958 7.59645C28.2002 8.13607 27.9268 8.75566 27.7948 9.41203C27.6627 10.0684 27.6751 10.7457 27.831 11.3968C27.987 12.0479 28.2828 12.657 28.6979 13.1818C28.7395 13.2339 28.7821 13.286 28.8257 13.336C28.8299 13.3401 28.832 13.3433 28.8351 13.3464C28.9424 13.4704 29.0566 13.5883 29.1771 13.6995C29.2062 13.7266 29.2364 13.7537 29.2665 13.7798C29.2697 13.7818 29.2717 13.785 29.2748 13.787C29.3372 13.8433 29.4017 13.8964 29.4682 13.9475C29.4776 13.9548 29.4859 13.961 29.4942 13.9683C29.5119 13.9819 29.5296 13.9954 29.5472 14.0089C29.6532 14.0891 29.7634 14.1631 29.8757 14.235C29.8778 14.235 29.8788 14.236 29.8809 14.2371C29.9131 14.2569 29.9464 14.2767 29.9786 14.2954C30.0119 14.3152 30.0462 14.335 30.0816 14.3548C30.1076 14.3694 30.1346 14.384 30.1605 14.3975L30.199 14.4173C30.2884 14.4631 30.3789 14.5069 30.4724 14.5475C30.4911 14.5559 30.5119 14.5642 30.5306 14.5725L30.5348 14.5746C30.5785 14.5923 30.6221 14.61 30.6668 14.6267C30.8131 14.6827 30.9623 14.7307 31.1138 14.7705C31.1398 14.7778 31.1648 14.784 31.1908 14.7892C31.4317 14.8498 31.6772 14.8902 31.9247 14.9101C32.0484 14.9205 32.1742 14.9257 32.299 14.9257C32.4434 14.9261 32.5877 14.9191 32.7314 14.9048C32.9173 14.8874 33.102 14.8589 33.2845 14.8194C33.4217 14.7892 33.5579 14.7527 33.692 14.7111C33.693 14.7111 33.693 14.71 33.6941 14.71C33.7907 14.6798 33.8854 14.6454 33.9789 14.609C34.0756 14.5704 34.1702 14.5288 34.2638 14.484C34.2658 14.4829 34.2689 14.4819 34.271 14.4809C34.271 14.4798 34.2731 14.4798 34.2742 14.4788C34.3157 14.459 34.3563 14.4381 34.3979 14.4173C34.4041 14.4142 34.4103 14.4111 34.4176 14.4069C34.4488 14.3913 34.48 14.3746 34.5112 14.3579C34.5133 14.3569 34.5143 14.3558 34.5164 14.3548C34.5985 14.309 34.6796 14.261 34.7596 14.21C34.7815 14.1965 34.8033 14.1829 34.8251 14.1673C34.8574 14.1475 34.8885 14.1256 34.9187 14.1037C34.9592 14.0756 34.9997 14.0464 35.0393 14.0162C35.0524 14.0078 35.0649 13.9984 35.0767 13.9881C35.1734 13.9152 35.2669 13.8381 35.3563 13.7568C36.0343 13.1515 36.5179 12.3582 36.7458 11.4774C36.9738 10.5965 36.936 9.66775 36.6371 8.80849ZM35.2784 13.4881C35.1658 13.5942 35.0479 13.6943 34.9249 13.7881C34.8979 13.8089 34.8698 13.8298 34.8418 13.8485C34.8147 13.8693 34.7877 13.8891 34.7597 13.9079C34.7357 13.9246 34.7118 13.9412 34.6869 13.9569C34.6848 13.9589 34.6817 13.96 34.6796 13.9621C34.6619 13.9746 34.6432 13.986 34.6255 13.9975C34.5704 14.0319 34.5133 14.0662 34.4571 14.0985C34.4436 14.1058 34.4311 14.1141 34.4176 14.1214C34.4103 14.1256 34.4031 14.1298 34.3947 14.1339C34.3636 14.1517 34.3324 14.1673 34.3012 14.184C34.297 14.1871 34.2918 14.1881 34.2877 14.1912C34.2861 14.1915 34.2847 14.1922 34.2835 14.1933C34.2617 14.2048 34.2399 14.2152 34.218 14.2256C34.1993 14.235 34.1816 14.2444 34.1629 14.2527C34.087 14.2892 34.0091 14.3235 33.9311 14.3558C33.849 14.3892 33.7658 14.4194 33.6816 14.4475C33.6608 14.4548 33.639 14.4631 33.6171 14.4694C33.5184 14.5006 33.4196 14.5288 33.3188 14.5517C33.1181 14.6006 32.9142 14.6351 32.7086 14.6548C32.5734 14.6673 32.4362 14.6736 32.299 14.6736C32.1659 14.6736 32.0339 14.6684 31.9018 14.6559C31.6663 14.6343 31.433 14.5932 31.2043 14.5329C31.196 14.5309 31.1866 14.5288 31.1783 14.5267C30.9907 14.4777 30.8069 14.415 30.6284 14.3392C30.619 14.335 30.6086 14.3319 30.6003 14.3277C30.5899 14.3235 30.5805 14.3204 30.5722 14.3162C30.5618 14.3121 30.5525 14.3079 30.5431 14.3037C30.4652 14.2694 30.3893 14.2319 30.3134 14.1933L30.278 14.1746C30.2105 14.1392 30.1439 14.1027 30.0784 14.0621C30.0556 14.0496 30.0317 14.035 30.0088 14.0204C29.9828 14.0048 29.9568 13.9881 29.9318 13.9714C29.9256 13.9673 29.9194 13.9631 29.9131 13.9589C29.8549 13.9193 29.7957 13.8798 29.7395 13.837C29.7001 13.8079 29.6616 13.7797 29.6231 13.7495C29.5981 13.7308 29.5732 13.711 29.5493 13.6902C29.5337 13.6787 29.5181 13.6652 29.5025 13.6516C29.4817 13.6339 29.4609 13.6162 29.4402 13.5974C29.4079 13.5714 29.3778 13.5422 29.3486 13.5151C29.2316 13.407 29.1209 13.2923 29.017 13.1714C28.9817 13.1318 28.9484 13.0922 28.9162 13.0505C28.9087 13.0423 28.9018 13.0336 28.8954 13.0245C28.372 12.3624 28.0523 11.562 27.9751 10.7209C27.898 9.87982 28.0667 9.03441 28.4609 8.28781C28.855 7.54122 29.4575 6.92572 30.1948 6.5164C30.9321 6.10707 31.7723 5.92163 32.6129 5.98268C33.4536 6.04374 34.2584 6.34866 34.929 6.86023C35.5997 7.37181 36.1073 8.06793 36.3899 8.86368C36.6725 9.65943 36.7179 10.5204 36.5205 11.3415C36.3231 12.1627 35.8915 12.9085 35.2784 13.4881Z" fill="#3F3D56"/>
<path d="M11.2111 34.1443L12.0521 34.1443L12.4522 30.8936L11.2109 30.8936L11.2111 34.1443Z" fill="#A0616A"/>
<path d="M10.9971 33.8692L12.6533 33.8691H12.6534C12.9333 33.8692 13.2018 33.9806 13.3997 34.1789C13.5977 34.3773 13.7089 34.6463 13.7089 34.9268V34.9612L10.9971 34.9613L10.9971 33.8692Z" fill="#2F2E41"/>
<path d="M14.3673 34.1443L15.2083 34.1443L15.6084 30.8936L14.3672 30.8936L14.3673 34.1443Z" fill="#A0616A"/>
<path d="M14.1523 33.8692L15.8086 33.8691H15.8087C16.0886 33.8692 16.357 33.9806 16.555 34.1789C16.7529 34.3773 16.8641 34.6463 16.8642 34.9268V34.9612L14.1524 34.9613L14.1523 33.8692Z" fill="#2F2E41"/>
<path d="M8.65954 21.2993C8.72838 21.2254 8.78021 21.1374 8.81139 21.0413C8.84258 20.9451 8.85236 20.8434 8.84004 20.7431C8.82772 20.6428 8.79361 20.5464 8.7401 20.4607C8.6866 20.3751 8.615 20.3022 8.53035 20.2473L9.11469 17.8616L7.91474 18.29L7.5438 20.4899C7.46114 20.6385 7.43575 20.8123 7.47245 20.9784C7.50914 21.1446 7.60537 21.2914 7.7429 21.3912C7.88043 21.491 8.0497 21.5367 8.21865 21.5198C8.38759 21.5028 8.54446 21.4244 8.65954 21.2993Z" fill="#9E616A"/>
<path d="M17.587 21.093C17.5181 21.0191 17.4663 20.9311 17.4351 20.835C17.4039 20.7389 17.3942 20.6371 17.4065 20.5368C17.4188 20.4365 17.4529 20.3401 17.5064 20.2544C17.5599 20.1688 17.6315 20.0959 17.7162 20.041L17.1318 17.6553L18.3318 18.0837L18.7027 20.2836C18.7854 20.4322 18.8108 20.606 18.7741 20.7721C18.7374 20.9383 18.6412 21.0851 18.5036 21.1849C18.3661 21.2847 18.1968 21.3304 18.0279 21.3135C17.8589 21.2966 17.7021 21.2181 17.587 21.093Z" fill="#9E616A"/>
<path d="M9.7666 19.6268L10.9323 33.3111L12.6379 33.1552L13.3206 22.5792L13.9282 26.7668L14.0499 33.4188L15.5934 33.3157L16.4504 26.1596L16.2402 19.2291L10.3807 18.6345L9.7666 19.6268Z" fill="#2F2E41"/>
<path d="M12.973 7.17456C13.9499 7.17456 14.7418 6.38094 14.7418 5.40198C14.7418 4.42301 13.9499 3.62939 12.973 3.62939C11.9961 3.62939 11.2041 4.42301 11.2041 5.40198C11.2041 6.38094 11.9961 7.17456 12.973 7.17456Z" fill="#A0616A"/>
<path d="M12.4129 3.98401C12.4129 3.98401 13.2383 4.20558 13.6658 4.29421C14.0933 4.38284 14.0491 4.13172 14.0491 4.13172C14.0491 4.13172 14.6092 4.20558 14.5797 4.14649C14.5503 4.0874 14.8156 3.77721 14.506 3.42269C14.1965 3.06817 14.2849 2.80229 14.2849 2.80229H14.0196L13.9459 2.69888H13.5332C13.5332 2.69888 13.0768 2.29791 12.2661 2.41608C11.4554 2.53425 10.4966 2.8466 10.4082 3.33406C10.3962 3.40018 10.3804 3.47363 10.362 3.55122C10.1403 4.48912 10.6114 5.36667 11.0999 6.19692C11.22 6.40097 11.8008 6.8459 11.7859 6.54063C11.7711 6.23537 11.2631 5.54979 11.6169 5.50547C11.9707 5.46116 12.575 4.5601 12.4129 3.98401Z" fill="#2F2E41"/>
<path d="M11.132 7.78003H14.2472L16.4499 19.4371C16.4499 19.4371 14.5295 19.6016 13.432 20.0141C12.3344 20.4265 10.5098 19.0719 10.5098 19.0719L11.132 7.78003Z" fill="#FFEAD7"/>
<path d="M11.5216 9.09639V7.77999L11.1688 7.77783L8.5918 9.41975L9.15099 18.4156C9.15099 18.4156 9.81283 21.4168 10.8167 21.3856C11.8205 21.3545 12.5946 10.6556 11.5216 9.09639Z" fill="#2F2E41"/>
<path d="M9.41876 9.66843L8.59099 9.41992C8.59099 9.41992 7.97819 9.59968 7.97819 10.2184C7.97819 10.8371 7.4502 19.627 7.4502 19.627L9.12749 19.7756L9.48736 15.3053L9.41876 9.66843Z" fill="#2F2E41"/>
<path d="M14.0151 8.63725L13.8501 7.78013L14.3238 7.70923L16.0388 8.39666C16.0388 8.39666 17.5822 19.7048 16.8963 20.0485C16.2103 20.3923 15.7471 20.126 15.7471 20.126C15.7471 20.126 13.4908 11.7857 13.8902 10.6583L14.0151 8.63725Z" fill="#2F2E41"/>
<path d="M14.8389 8.56849L15.1315 8.44083C15.1315 8.44083 15.9906 8.01424 16.478 8.87568C16.9654 9.73712 18.6804 19.3611 18.6804 19.3611L17.2693 19.627L16.2144 16.1635L14.8389 8.56849Z" fill="#2F2E41"/>
<path d="M26.2047 35H0.0685987C0.0504052 35 0.0329568 34.9928 0.020092 34.9799C0.00722729 34.967 0 34.9495 0 34.9313C0 34.9131 0.00722729 34.8956 0.020092 34.8827C0.0329568 34.8698 0.0504052 34.8625 0.0685987 34.8625H26.2047C26.2229 34.8625 26.2404 34.8698 26.2532 34.8827C26.2661 34.8956 26.2733 34.9131 26.2733 34.9313C26.2733 34.9495 26.2661 34.967 26.2532 34.9799C26.2404 34.9928 26.2229 35 26.2047 35Z" fill="#CACACA"/>
</g>
<defs>
<clipPath id="clip0_1_2154">
<rect width="62" height="35" fill="white"/>
</clipPath>
</defs>
</svg>
