<svg width="40" height="45" viewBox="0 0 40 45" fill="none" xmlns="http://www.w3.org/2000/svg">
<g clip-path="url(#clip0_1_2269)">
<path d="M22.6763 34.6733C32.2439 34.6733 40 26.9114 40 17.3366C40 7.76187 32.2439 0 22.6763 0C13.1086 0 5.35254 7.76187 5.35254 17.3366C5.35254 26.9114 13.1086 34.6733 22.6763 34.6733Z" fill="#F2F2F2"/>
<path d="M33.9969 7.75296H2.26221C2.19416 7.75151 2.14017 7.69512 2.14163 7.62702C2.14304 7.56097 2.19621 7.50776 2.26221 7.50635H33.9969C34.065 7.5078 34.1189 7.56419 34.1175 7.63229C34.1161 7.69834 34.0629 7.75155 33.9969 7.75296Z" fill="#CACACA"/>
<path d="M23.1816 11.9084H14.4089C13.75 11.9084 13.2158 12.443 13.2158 13.1024V13.1024C13.2158 13.7619 13.75 14.2964 14.4089 14.2964H23.1816C23.8406 14.2964 24.3747 13.7619 24.3747 13.1024C24.3747 12.443 23.8406 11.9084 23.1816 11.9084Z" fill="white"/>
<path d="M8.74193 16.6846H28.8491C29.508 16.6846 30.0422 17.2191 30.0422 17.8786C30.0422 18.538 29.508 19.0725 28.8491 19.0725H8.74193C8.083 19.0725 7.54883 18.538 7.54883 17.8786C7.54883 17.2191 8.083 16.6846 8.74193 16.6846Z" fill="white"/>
<path d="M8.74193 21.4604H28.8491C29.508 21.4604 30.0422 21.995 30.0422 22.6544C30.0422 23.3139 29.508 23.8484 28.8491 23.8484H8.74193C8.083 23.8484 7.54883 23.3139 7.54883 22.6544C7.54883 21.995 8.083 21.4604 8.74193 21.4604Z" fill="white"/>
<path d="M6.24984 44.8951L6.20251 44.8904C4.59695 44.7247 3.14553 43.8605 2.23385 42.5276C1.98413 42.1562 1.78213 41.7548 1.63263 41.3328L1.61826 41.2926L1.6608 41.2891C2.16872 41.2482 2.6905 41.162 2.92229 41.121L1.42762 40.6142L1.41838 40.5698C1.32977 40.1531 1.50337 39.7245 1.85683 39.4871C2.21124 39.2384 2.68123 39.2304 3.04385 39.467C3.20658 39.5711 3.37679 39.6741 3.54139 39.7737C4.10702 40.1161 4.6919 40.4702 5.13042 40.9546C5.79537 41.7039 6.08683 42.7135 5.92362 43.7023L6.24984 44.8951Z" fill="#F2F2F2"/>
<path d="M11.6828 44.1511L12.4194 44.151L12.7699 41.3074L11.6826 41.3074L11.6828 44.1511Z" fill="#A0616A"/>
<path d="M11.6573 44.9201L13.9226 44.92V44.8914C13.9226 44.404 13.5278 44.009 13.0409 44.009L12.627 43.6948L11.855 44.009L11.6572 44.009L11.6573 44.9201Z" fill="#2F2E41"/>
<path d="M5.7793 42.1091L6.36851 42.5515L8.35412 40.4874L7.48439 39.8345L5.7793 42.1091Z" fill="#A0616A"/>
<path d="M5.29785 42.7088L7.10996 44.0692L7.12715 44.0463C7.41935 43.6565 7.34049 43.1034 6.95099 42.8109L6.80835 42.3111L6.00236 42.0987L5.84418 41.98L5.29785 42.7088Z" fill="#2F2E41"/>
<path d="M8.22874 30.8068C8.22874 30.8068 8.26941 31.917 8.3207 32.8072C8.32911 32.9532 7.98731 33.1118 7.99616 33.2707C8.00203 33.376 8.06628 33.4785 8.07225 33.5884C8.07855 33.7043 7.98984 33.807 7.99616 33.9269C8.00233 34.0441 8.10353 34.1784 8.10963 34.2984C8.17532 35.589 8.41345 37.1341 8.175 37.566C8.05748 37.7789 6.55957 40.7279 6.55957 40.7279C6.55957 40.7279 7.39416 41.9807 7.63261 41.5631C7.94755 41.0115 10.3748 38.431 10.3748 37.9383C10.3748 37.4461 10.9364 33.7575 10.9364 33.7575L11.3279 35.9404L11.5075 36.3728L11.4511 36.6268L11.5671 36.9694L11.5733 37.3085L11.6863 37.9383C11.6863 37.9383 11.3465 42.8445 11.5379 42.9811C11.7298 43.1183 12.6592 43.3647 12.7689 43.1183C12.878 42.8719 13.5881 37.9979 13.5881 37.9979C13.5881 37.9979 13.7025 35.7643 13.8265 33.6883C13.8337 33.5677 13.9183 33.4222 13.9249 33.3035C13.9326 33.1657 13.879 32.9867 13.8861 32.8531C13.8939 32.6997 13.9618 32.5918 13.9684 32.445C14.0191 31.3109 13.7346 29.9299 13.644 29.7939C13.3704 29.3834 13.1242 29.0553 13.1242 29.0553C13.1242 29.0553 9.43875 27.8435 8.45394 29.0748L8.22874 30.8068Z" fill="#2F2E41"/>
<path d="M11.904 19.3913L10.443 19.0989L9.76119 20.0249C8.48901 21.2767 8.46985 22.3815 8.69695 24.1525V26.638L8.53258 28.3042C8.53258 28.3042 7.9507 29.5222 8.55085 29.8058C9.15101 30.0894 13.0931 30.0652 13.4695 29.952C13.8459 29.8388 13.5196 29.6998 13.4208 29.1722C13.2351 28.1812 13.3593 28.6593 13.3721 28.3437C13.5553 23.8175 13.1286 21.9594 13.0853 21.4709L12.3423 20.1223L11.904 19.3913Z" fill="#3F3D56"/>
<path d="M19.6041 23.0406C19.4519 23.3294 19.0946 23.4399 18.8061 23.2875C18.7753 23.2713 18.746 23.2523 18.7186 23.2309L15.5635 25.2358L15.5726 24.1442L18.6375 22.3643C18.8559 22.1193 19.2313 22.0978 19.476 22.3163C19.6809 22.4991 19.7338 22.7986 19.6041 23.0406Z" fill="#A0616A"/>
<path d="M10.7509 20.6555L10.3917 20.6174C10.0598 20.5829 9.73415 20.7252 9.53373 20.9922C9.45697 21.0934 9.40184 21.2094 9.37176 21.3329L9.37154 21.3339C9.28144 21.7055 9.42276 22.095 9.73016 22.3223L10.9708 23.2376C11.8415 24.4149 13.4777 25.196 15.3971 25.8306L18.3805 23.9764L17.3253 22.6974L15.2789 23.7949L12.2372 21.4385L12.2354 21.4371L11.0777 20.6906L10.7509 20.6555Z" fill="#3F3D56"/>
<path d="M11.4107 18.6734C12.3517 18.6734 13.1145 17.91 13.1145 16.9684C13.1145 16.0268 12.3517 15.2634 11.4107 15.2634C10.4698 15.2634 9.70703 16.0268 9.70703 16.9684C9.70703 17.91 10.4698 18.6734 11.4107 18.6734Z" fill="#A0616A"/>
<path d="M11.4495 18.6738C11.4357 18.6743 11.422 18.6746 11.4082 18.675C11.4023 18.6902 11.396 18.7054 11.3887 18.7203L11.4495 18.6738Z" fill="#2F2E41"/>
<path d="M11.917 17.0156C11.9197 17.0324 11.9238 17.049 11.9292 17.0651C11.927 17.0482 11.9229 17.0316 11.917 17.0156Z" fill="#2F2E41"/>
<path d="M13.136 15.3364C13.0659 15.5543 13.0033 15.2779 12.7726 15.3276C12.4951 15.3874 12.1722 15.3669 11.9449 15.1966C11.6063 14.948 11.1675 14.8811 10.7702 15.0175C10.3814 15.1551 9.72988 15.2522 9.62856 15.6523C9.59334 15.7914 9.57935 15.9424 9.49398 16.0577C9.41934 16.1584 9.30153 16.2159 9.20302 16.2935C8.87037 16.5554 9.12461 17.2995 9.28205 17.6927C9.43949 18.0859 9.80064 18.3723 10.1977 18.5191C10.5819 18.661 10.9989 18.6861 11.4087 18.6749C11.48 18.4899 11.4492 18.2762 11.3904 18.0844C11.3267 17.8768 11.2324 17.6764 11.2058 17.4608C11.1792 17.2453 11.2376 17.0004 11.4182 16.88C11.5842 16.7693 11.8544 16.8367 11.9175 17.0157C11.8807 16.7919 12.1072 16.5754 12.3407 16.5373C12.5915 16.4964 12.8422 16.587 13.0922 16.6321C13.3423 16.6772 13.2535 15.6238 13.136 15.3364Z" fill="#2F2E41"/>
<path d="M22.6647 19.7887C22.8235 17.8683 21.3966 16.1826 19.4776 16.0237C17.5586 15.8647 15.8741 17.2927 15.7153 19.2131C15.5565 21.1336 16.9834 22.8193 18.9024 22.9782C20.8215 23.1372 22.5059 21.7092 22.6647 19.7887Z" fill="#FFEAD7"/>
<path d="M20.1058 18.0473L19.1899 18.9638L18.2741 18.0473C18.1258 17.8989 17.8854 17.8989 17.7372 18.0473C17.5889 18.1957 17.5889 18.4362 17.7372 18.5846L18.653 19.5011L17.7372 20.4177C17.5891 20.5662 17.5893 20.8067 17.7377 20.955C17.8859 21.103 18.1259 21.103 18.2741 20.955L19.1899 20.0384L20.1058 20.955C20.2542 21.1032 20.4945 21.103 20.6427 20.9545C20.7906 20.8061 20.7906 20.566 20.6427 20.4177L19.7268 19.5011L20.6427 18.5846C20.7909 18.4362 20.7909 18.1957 20.6427 18.0473C20.4944 17.8989 20.254 17.8989 20.1058 18.0473Z" fill="white"/>
<path d="M17.8156 16.5685C17.9184 16.8783 17.7507 17.2128 17.4411 17.3157C17.4081 17.3267 17.3742 17.3347 17.3398 17.3397L16.6011 21.0061L15.8203 20.2439L16.6587 16.7982C16.6332 16.471 16.8777 16.185 17.2047 16.1595C17.4783 16.1382 17.7309 16.3072 17.8156 16.5685Z" fill="#A0616A"/>
<path d="M9.96582 21.3108L9.68968 21.5439C9.43506 21.7597 9.31219 22.0933 9.36595 22.4229C9.38582 22.5484 9.43127 22.6685 9.49949 22.7758L9.50005 22.7766C9.70567 23.099 10.0844 23.2666 10.461 23.2019L11.98 22.9397C13.4317 23.126 15.1277 22.4851 16.914 21.5384L17.6424 18.1002L15.9896 17.9768L15.3643 20.2144L11.5594 20.7796L11.5571 20.7799L10.2174 21.0992L9.96582 21.3108Z" fill="#3F3D56"/>
<path d="M18.6153 44.9789L0.0809466 44.9999C0.0360966 44.9998 -0.000144839 44.9633 4.35226e-07 44.9184C0.000144345 44.8737 0.0363005 44.8375 0.0809466 44.8374L18.6153 44.8164C18.6601 44.8166 18.6964 44.8531 18.6962 44.8979C18.6961 44.9426 18.6599 44.9788 18.6153 44.9789Z" fill="#CACACA"/>
<path d="M3.87267 6.19087C4.19121 6.19087 4.44944 5.92669 4.44944 5.60081C4.44944 5.27492 4.19121 5.01074 3.87267 5.01074C3.55413 5.01074 3.2959 5.27492 3.2959 5.60081C3.2959 5.92669 3.55413 6.19087 3.87267 6.19087Z" fill="#3F3D56"/>
<path d="M5.86486 6.19087C6.1834 6.19087 6.44163 5.92669 6.44163 5.60081C6.44163 5.27492 6.1834 5.01074 5.86486 5.01074C5.54632 5.01074 5.28809 5.27492 5.28809 5.60081C5.28809 5.92669 5.54632 6.19087 5.86486 6.19087Z" fill="#3F3D56"/>
<path d="M7.85802 6.19087C8.17656 6.19087 8.43479 5.92669 8.43479 5.60081C8.43479 5.27492 8.17656 5.01074 7.85802 5.01074C7.53948 5.01074 7.28125 5.27492 7.28125 5.60081C7.28125 5.92669 7.53948 6.19087 7.85802 6.19087Z" fill="#3F3D56"/>
<path d="M10.1293 6.06722C10.1115 6.06722 10.0939 6.06036 10.0805 6.04669L9.69133 5.64856C9.66539 5.62203 9.66539 5.57964 9.69133 5.55311L10.0805 5.15502C10.1069 5.12809 10.1501 5.12766 10.177 5.15395C10.2039 5.18031 10.2044 5.22354 10.178 5.25047L9.8355 5.60084L10.178 5.95124C10.2044 5.97817 10.2039 6.0214 10.177 6.04776C10.1637 6.06076 10.1465 6.06722 10.1293 6.06722Z" fill="#3F3D56"/>
<path d="M10.784 6.06727C10.7668 6.06727 10.7496 6.06081 10.7363 6.04781C10.7094 6.02145 10.7089 5.97825 10.7353 5.95129L11.0778 5.60089L10.7353 5.25052C10.7089 5.22359 10.7094 5.18036 10.7363 5.154C10.7632 5.12761 10.8064 5.12811 10.8328 5.15507L11.2219 5.55316C11.2479 5.57969 11.2479 5.62208 11.2219 5.64861L10.8328 6.04674C10.8194 6.06041 10.8017 6.06727 10.784 6.06727Z" fill="#3F3D56"/>
<path d="M31.1435 5.0791H30.4199C30.3373 5.0791 30.2705 5.14599 30.2705 5.22858V5.95344C30.2705 6.03603 30.3373 6.10292 30.4199 6.10292H31.1435C31.226 6.10292 31.2936 6.03603 31.2936 5.95344V5.22858C31.2936 5.14599 31.226 5.0791 31.1435 5.0791Z" fill="#3F3D56"/>
<path d="M29.3701 5.0791H28.6464C28.5639 5.0791 28.4971 5.14599 28.4971 5.22858V5.95344C28.4971 6.03603 28.5639 6.10292 28.6464 6.10292H29.3701C29.4526 6.10292 29.5201 6.03603 29.5201 5.95344V5.22858C29.5201 5.14599 29.4526 5.0791 29.3701 5.0791Z" fill="#3F3D56"/>
<path d="M32.8144 5.11328H32.0908C32.0082 5.11328 31.9414 5.18017 31.9414 5.26276V5.98762C31.9414 6.07021 32.0082 6.1371 32.0908 6.1371H32.8144C32.8969 6.1371 32.9645 6.07021 32.9645 5.98762V5.26276C32.9645 5.18017 32.8969 5.11328 32.8144 5.11328Z" fill="#3F3D56"/>
<path d="M21.9069 5.38892H16.1225C16.0216 5.38892 15.9404 5.47082 15.9404 5.57116C15.9404 5.67149 16.0216 5.7534 16.1225 5.7534H21.9069C22.0071 5.7534 22.089 5.67149 22.089 5.57116C22.089 5.47083 22.0071 5.38892 21.9069 5.38892Z" fill="#3F3D56"/>
</g>
<defs>
<clipPath id="clip0_1_2269">
<rect width="40" height="45" fill="white"/>
</clipPath>
</defs>
</svg>
