<svg width="47" height="35" viewBox="0 0 47 35" fill="none" xmlns="http://www.w3.org/2000/svg">
<g clip-path="url(#clip0_1_2306)">
<path d="M18.8077 3.3761C18.2351 4.34422 19.3133 5.97545 18.2266 6.31418L18.3161 6.22633C18.9721 5.43447 17.6011 3.75848 18.257 2.96663C18.3589 2.85048 18.4464 2.72285 18.5176 2.58643" fill="#2F2E41"/>
<path d="M24.17 17.5791C24.1888 17.4822 24.1857 17.3824 24.1609 17.2869C24.1362 17.1913 24.0904 17.1022 24.0268 17.0259C23.9631 16.9496 23.8832 16.8878 23.7927 16.8451C23.7021 16.8024 23.6031 16.7796 23.5026 16.7785L22.0872 12.7427L21.3037 13.7227L22.8003 17.4938C22.8095 17.6596 22.8804 17.8162 22.9995 17.9342C23.1186 18.0521 23.2777 18.123 23.4465 18.1335C23.6154 18.144 23.7823 18.0934 23.9156 17.9912C24.049 17.889 24.1395 17.7424 24.17 17.5791Z" fill="#FFB8B8"/>
<path d="M17.9484 7.83518C17.9484 7.83518 17.9044 6.37426 19.2355 7.21116C20.5667 8.04806 23.465 15.8878 23.465 15.8878L22.0227 16.6536L18.7484 9.47937L17.9484 7.83518Z" fill="#FFEAD7"/>
<path d="M21.8755 32.8741L21.2108 33.1529L19.7988 30.7694L20.7799 30.3579L21.8755 32.8741Z" fill="#FFB6B6"/>
<path d="M22.7186 33.8573L22.242 34.0573L21.9646 33.6513L21.939 34.1843L20.6747 34.7145C20.6141 34.7399 20.5468 34.7457 20.4826 34.7309C20.4184 34.7161 20.3608 34.6816 20.318 34.6324C20.2753 34.5832 20.2497 34.5219 20.2449 34.4573C20.2402 34.3928 20.2566 34.3285 20.2918 34.2738L21.0035 33.1661L20.809 32.7196L21.8981 32.3364L22.7186 33.8573Z" fill="#2F2E41"/>
<path d="M11.4559 33.6828L10.7339 33.6482L10.5264 30.8987L11.592 30.9498L11.4559 33.6828Z" fill="#FFB6B6"/>
<path d="M11.7758 34.9285L11.2581 34.9037L11.1895 34.4195L10.929 34.8879L9.55571 34.8221C9.48989 34.8189 9.42681 34.7952 9.3757 34.7543C9.32458 34.7135 9.2881 34.6577 9.27158 34.5951C9.25507 34.5325 9.25937 34.4664 9.28388 34.4063C9.30839 34.3463 9.35181 34.2955 9.4078 34.2614L10.5414 33.5707L10.5656 33.0857L11.7157 33.2086L11.7758 34.9285Z" fill="#2F2E41"/>
<path d="M32.7288 33.2447C32.7767 33.2464 32.8239 33.2336 32.8641 33.2081C32.9042 33.1826 32.9355 33.1456 32.9535 33.1021C32.9716 33.0586 32.9755 33.0107 32.9649 32.9649C32.9543 32.9191 32.9296 32.8776 32.8941 32.8461C32.888 32.8232 32.8836 32.8067 32.8775 32.7838C32.9222 32.6694 33.0006 32.5706 33.1029 32.5001C33.2051 32.4297 33.3264 32.3908 33.4513 32.3885C33.5762 32.3862 33.6989 32.4205 33.8038 32.4871C33.9086 32.5537 33.9909 32.6495 34.0399 32.7622C34.3227 33.395 34.687 34.0495 34.5158 34.751C35.668 32.294 35.2386 29.2552 33.4804 27.1797C32.9975 26.9245 32.6036 26.4668 32.4971 25.9319C32.7356 26.0088 33.0302 25.8162 32.849 25.5721C32.7706 25.4789 32.6915 25.3865 32.6131 25.2932C33.507 24.3409 34.5975 25.8143 33.6158 27.0976C33.9448 27.4947 34.2307 27.9245 34.4687 28.3799C34.4101 27.8945 34.4697 27.4023 34.6426 26.9439C34.8183 26.5166 35.1518 26.155 35.445 25.7842C35.8014 25.3325 36.5461 25.5324 36.6001 26.1009C36.2682 26.2115 36.2295 26.6839 36.611 26.7449C36.5215 27.8044 35.8264 28.7837 34.8604 29.257C35.2283 30.2405 35.3785 31.2897 35.3008 32.3347C35.4603 31.1128 36.7921 30.8042 37.7203 30.3105C37.7793 30.2725 37.8483 30.2523 37.9188 30.2522C37.9893 30.2521 38.0584 30.2721 38.1175 30.3099C38.1766 30.3476 38.2233 30.4014 38.2518 30.4648C38.2803 30.5281 38.2894 30.5982 38.278 30.6665C38.1497 30.7191 38.0271 30.7841 37.9119 30.8604C37.858 30.8968 37.8168 30.9486 37.794 31.0088C37.7712 31.0691 37.768 31.1347 37.7847 31.1968C37.8015 31.2589 37.8374 31.3144 37.8875 31.3557C37.9377 31.3969 37.9996 31.422 38.0648 31.4274C37.6057 32.5739 36.3973 33.3523 35.1487 33.3596C35.0336 33.8725 34.8646 34.3722 34.6443 34.8508L32.791 34.8681C32.7842 34.848 32.778 34.8272 32.7718 34.807C32.9435 34.816 33.1156 34.8043 33.2843 34.7722C32.8254 34.2491 32.4718 33.9833 32.7288 33.2447Z" fill="#F2F2F2"/>
<path d="M13.2797 15.8099C13.2797 15.8099 11.8115 19.7368 11.7877 20.1762C11.764 20.6156 11.3453 26.1726 10.9941 26.4955C10.643 26.8183 9.56933 31.8241 10.4047 32.2157C11.2401 32.6072 13.8757 31.9586 13.8757 31.9586L14.7925 26.0456L15.104 21.5155C15.104 21.5155 16.0522 32.183 17.772 32.1517C19.4918 32.1203 21.5875 31.4776 21.5875 31.4776L19.1803 25.0172C19.1803 25.0172 19.2144 17.369 18.6564 15.8264C18.0985 14.2838 13.2797 15.8099 13.2797 15.8099Z" fill="#2F2E41"/>
<path d="M17.6365 5.69287L15.6703 5.86962L15.3535 6.82392C15.3535 6.82392 13.708 7.7108 14.0723 8.11372C14.4367 8.51664 13.9909 11.2319 13.9909 11.2319L14.0916 13.436C14.0916 13.436 13.9834 14.963 13.6597 15.3149C13.336 15.6667 12.4891 16.5294 13.0875 16.1167C15.1857 14.6694 18.8531 15.8906 18.8531 15.8906L18.3292 12.7413C18.3292 12.7413 19.5192 7.58511 19.0496 7.14965C18.5799 6.71419 18.1368 6.65915 18.1368 6.65915L17.6365 5.69287Z" fill="#FFEAD7"/>
<path d="M7.30439 15.6824C7.40318 15.6643 7.49673 15.6252 7.57846 15.5678C7.66019 15.5105 7.7281 15.4362 7.77742 15.3503C7.82674 15.2644 7.85627 15.1689 7.86392 15.0706C7.87156 14.9722 7.85715 14.8734 7.82169 14.7812L11.1381 12.0199L9.92292 11.6599L6.8874 14.3991C6.7334 14.4678 6.61044 14.5896 6.54182 14.7413C6.4732 14.8931 6.46369 15.0643 6.51509 15.2225C6.56649 15.3807 6.67523 15.5149 6.8207 15.5996C6.96617 15.6844 7.13828 15.7138 7.30439 15.6824Z" fill="#FFB8B8"/>
<path d="M15.7265 8.45978C15.7265 8.45978 16.3799 7.14641 14.8156 7.37076C13.2513 7.59511 7.31934 13.5667 7.31934 13.5667L8.31206 14.8477L14.3073 9.63448L15.7265 8.45978Z" fill="#FFEAD7"/>
<path d="M13.179 6.23207L6.97702 14.0299C6.86972 14.1652 6.82148 14.3368 6.84285 14.507C6.86422 14.6772 6.95347 14.8321 7.09103 14.9378C8.5313 18.3699 12.8402 20.9149 17.909 23.2249C18.0469 23.3303 18.2217 23.3777 18.3952 23.3567C18.5686 23.3358 18.7265 23.2481 18.8342 23.113L25.0362 15.3152C25.1436 15.1799 25.1919 15.0083 25.1705 14.8381C25.1492 14.6678 25.0598 14.5129 24.9222 14.4072C20.6685 12.05 17.0124 9.31897 14.1042 6.12018C13.9663 6.01488 13.7915 5.96754 13.6181 5.98851C13.4446 6.00948 13.2868 6.09707 13.179 6.23207Z" fill="#E6E6E6"/>
<path d="M24.6009 15.1377L22.7131 17.5113C21.5599 18.9525 19.8724 19.8873 18.0193 20.1114C16.1661 20.3355 14.2979 19.8308 12.8227 18.7075L7.53209 14.6547C7.45372 14.5947 7.40282 14.5065 7.39056 14.4097C7.3783 14.3128 7.40569 14.2152 7.46671 14.1381L13.4597 6.60307C13.5211 6.52627 13.611 6.47648 13.7097 6.46464C13.8084 6.4528 13.9078 6.47986 13.9862 6.53989C16.6625 9.93146 20.2449 12.5708 24.5361 14.6216C24.6144 14.6817 24.6651 14.7697 24.6773 14.8665C24.6894 14.9633 24.662 15.0608 24.6009 15.1377Z" fill="white"/>
<path d="M13.0554 10.4888L11.826 12.0346C11.7933 12.0755 11.7455 12.1021 11.6929 12.1084C11.6403 12.1147 11.5874 12.1003 11.5456 12.0684C11.5039 12.0364 11.4768 11.9894 11.4703 11.9379C11.4638 11.8863 11.4784 11.8343 11.5109 11.7933L12.7404 10.2475C12.7565 10.2271 12.7766 10.2101 12.7994 10.1974C12.8223 10.1847 12.8474 10.1765 12.8735 10.1734C12.8996 10.1702 12.926 10.1721 12.9513 10.179C12.9766 10.1858 13.0003 10.1975 13.021 10.2134C13.0417 10.2292 13.059 10.2489 13.0719 10.2714C13.0848 10.2938 13.0931 10.3185 13.0963 10.3441C13.0995 10.3696 13.0976 10.3956 13.0906 10.4204C13.0835 10.4452 13.0716 10.4685 13.0554 10.4888Z" fill="#CCCCCC"/>
<path d="M15.362 9.34216L12.662 12.7369C12.6459 12.7572 12.6258 12.7742 12.603 12.7868C12.5801 12.7995 12.555 12.8077 12.5289 12.8108C12.5029 12.814 12.4765 12.8121 12.4512 12.8052C12.4259 12.7983 12.4022 12.7866 12.3816 12.7708C12.3609 12.755 12.3436 12.7353 12.3306 12.7129C12.3177 12.6905 12.3094 12.6658 12.3062 12.6402C12.303 12.6146 12.3049 12.5887 12.3119 12.5639C12.3189 12.5391 12.3308 12.5159 12.347 12.4956L15.047 9.10084C15.0631 9.0805 15.0832 9.06347 15.106 9.05074C15.1289 9.038 15.154 9.02981 15.1801 9.02664C15.2062 9.02346 15.2326 9.02537 15.2579 9.03223C15.2833 9.0391 15.3069 9.0508 15.3277 9.06666C15.3484 9.08253 15.3657 9.10224 15.3786 9.12468C15.3915 9.14711 15.3998 9.17183 15.403 9.19742C15.4062 9.22301 15.4043 9.24896 15.3972 9.2738C15.3902 9.29864 15.3782 9.32187 15.362 9.34216Z" fill="#CCCCCC"/>
<path d="M10.7565 15.0046C11.4834 15.0046 12.0726 14.4263 12.0726 13.713C12.0726 12.9997 11.4834 12.4214 10.7565 12.4214C10.0297 12.4214 9.44043 12.9997 9.44043 13.713C9.44043 14.4263 10.0297 15.0046 10.7565 15.0046Z" fill="#FFEAD7"/>
<path d="M15.5055 12.0253L12.1893 16.1946C12.1547 16.2292 12.1084 16.2501 12.0591 16.2533C12.0098 16.2565 11.961 16.2418 11.9221 16.2119C11.8832 16.1821 11.8568 16.1393 11.848 16.0916C11.8391 16.0439 11.8485 15.9947 11.8743 15.9533L15.1904 11.7839C15.2251 11.7493 15.2714 11.7285 15.3207 11.7253C15.37 11.7221 15.4187 11.7368 15.4577 11.7666C15.4966 11.7965 15.523 11.8393 15.5318 11.887C15.5406 11.9347 15.5313 11.9839 15.5055 12.0253Z" fill="#CCCCCC"/>
<path d="M17.6567 11.0734L13.0282 16.8928C12.9936 16.9274 12.9472 16.9483 12.8979 16.9515C12.8487 16.9546 12.7999 16.9399 12.761 16.9101C12.722 16.8803 12.6956 16.8374 12.6868 16.7897C12.678 16.742 12.6874 16.6928 12.7132 16.6515L17.3417 10.832C17.3763 10.7974 17.4227 10.7766 17.472 10.7734C17.5212 10.7702 17.57 10.7849 17.6089 10.8147C17.6479 10.8446 17.6743 10.8874 17.6831 10.9351C17.6919 10.9828 17.6825 11.032 17.6567 11.0734Z" fill="#CCCCCC"/>
<path d="M17.6402 13.6608L14.3241 17.8301C14.2895 17.8647 14.2431 17.8856 14.1938 17.8888C14.1445 17.892 14.0958 17.8773 14.0569 17.8474C14.0179 17.8176 13.9915 17.7748 13.9827 17.7271C13.9739 17.6794 13.9833 17.6302 14.0091 17.5888L17.3252 13.4194C17.3598 13.3848 17.4062 13.364 17.4555 13.3608C17.5048 13.3576 17.5535 13.3723 17.5924 13.4021C17.6314 13.432 17.6578 13.4748 17.6666 13.5225C17.6754 13.5702 17.666 13.6194 17.6402 13.6608Z" fill="#CCCCCC"/>
<path d="M22.0279 14.1752L18.7118 18.3445C18.6772 18.3791 18.6308 18.4 18.5815 18.4032C18.5322 18.4064 18.4835 18.3917 18.4446 18.3618C18.4056 18.332 18.3792 18.2892 18.3704 18.2415C18.3616 18.1938 18.371 18.1446 18.3968 18.1032L21.7129 13.9338C21.7475 13.8993 21.7939 13.8784 21.8432 13.8752C21.8924 13.872 21.9412 13.8867 21.9801 13.9165C22.0191 13.9464 22.0455 13.9892 22.0543 14.0369C22.0631 14.0846 22.0537 14.1338 22.0279 14.1752Z" fill="#FFEAD7"/>
<path d="M19.7915 12.7088L15.163 18.5283C15.1284 18.5629 15.082 18.5838 15.0327 18.587C14.9834 18.5901 14.9347 18.5754 14.8957 18.5456C14.8568 18.5158 14.8304 18.4729 14.8216 18.4252C14.8128 18.3775 14.8222 18.3283 14.8479 18.287L19.4765 12.4675C19.5111 12.4329 19.5574 12.4121 19.6067 12.4089C19.656 12.4057 19.7048 12.4204 19.7437 12.4502C19.7826 12.4801 19.809 12.5229 19.8178 12.5706C19.8266 12.6183 19.8173 12.6675 19.7915 12.7088Z" fill="#CCCCCC"/>
<path d="M14.3398 3.22927C14.3397 3.54302 14.4181 3.85201 14.5681 4.1291C14.718 4.40619 14.935 4.64292 15.1999 4.8185C15.4649 4.99408 15.7697 5.10315 16.0876 5.13613C16.4056 5.16911 16.7269 5.12499 17.0234 5.00765C17.3199 4.89031 17.5825 4.70333 17.7882 4.46313C17.9938 4.22293 18.1363 3.93685 18.203 3.63001C18.2697 3.32317 18.2587 3.00494 18.1708 2.70327C18.083 2.40159 17.921 2.12569 17.6992 1.89979L17.6898 1.8906C17.6742 1.8745 17.6585 1.8584 17.6421 1.84306C17.642 1.84306 17.6419 1.84304 17.6418 1.843C17.6417 1.84297 17.6416 1.84291 17.6416 1.84284C17.6415 1.84277 17.6414 1.84268 17.6414 1.84259C17.6414 1.84249 17.6413 1.84239 17.6413 1.84229C17.621 1.82389 17.6007 1.80549 17.5796 1.78786C17.2974 1.54503 16.9499 1.38718 16.5786 1.33319C16.2073 1.27921 15.8281 1.33138 15.4862 1.48347C15.1444 1.63556 14.8544 1.88111 14.6511 2.19074C14.4478 2.50036 14.3397 2.86092 14.3398 3.22927Z" fill="#2F2E41"/>
<path d="M16.7745 5.28001C17.679 5.28001 18.4122 4.5604 18.4122 3.67272C18.4122 2.78504 17.679 2.06543 16.7745 2.06543C15.87 2.06543 15.1367 2.78504 15.1367 3.67272C15.1367 4.5604 15.87 5.28001 16.7745 5.28001Z" fill="#FFB8B8"/>
<path d="M15.0277 4.10111C14.8676 3.39312 15.099 2.59992 15.6035 2.12727C15.8572 1.89424 16.1728 1.7362 16.5139 1.6713C16.8551 1.6064 17.208 1.63729 17.532 1.76041C17.5732 1.77673 17.6144 1.79458 17.6548 1.81322L17.6736 1.82192V1.82462C17.6773 1.82709 17.6809 1.8297 17.6846 1.83234C17.6922 1.83936 17.7015 1.8444 17.7116 1.84699C17.8538 1.84334 17.9952 1.86922 18.1265 1.92293C18.2578 1.97665 18.3761 2.05699 18.4735 2.15868C18.7274 2.42898 18.8469 2.8658 18.8102 3.38866L18.8091 3.40501L18.7949 3.41371C18.6027 3.53322 18.4033 3.64113 18.1977 3.73682C17.4788 4.0686 16.8224 4.13008 16.1915 3.92452L16.18 3.92076L15.9152 3.48526C15.8608 3.78562 15.8899 4.78192 15.578 4.8359L15.0345 4.13115L15.0277 4.10111Z" fill="#2F2E41"/>
<path d="M11.5809 5.50052C12.1382 5.21821 11.4215 4.19359 11.5655 3.59453C11.7095 2.99546 12.7467 2.80278 12.8128 2.19069C12.8789 1.5786 13.0343 0.94729 13.4459 0.482831C13.7089 0.186041 14.0964 -0.0330595 14.4953 0.00411523C14.6303 0.0166928 14.761 0.0576754 14.8784 0.124272C14.9958 0.190868 15.0972 0.281514 15.1757 0.390035C15.2541 0.498556 15.3079 0.622401 15.3332 0.753139C15.3585 0.883876 15.3548 1.01843 15.3224 1.14764C15.436 0.989679 15.7299 1.02392 15.8027 1.20359C15.8674 1.36333 15.7245 1.55681 15.5563 1.57094C15.3362 1.83767 15.0842 2.12074 14.7394 2.17455C14.6845 2.18693 14.6274 2.1869 14.5725 2.17445C14.5176 2.16201 14.4663 2.13749 14.4224 2.10273C14.3413 2.02629 14.335 1.87345 14.4312 1.81632C13.9979 1.98524 13.7439 2.445 13.6796 2.89818C13.6153 3.35136 13.7042 3.80989 13.7629 4.26381C13.8215 4.71774 13.8467 5.19524 13.6654 5.61676C13.4511 6.1148 12.9578 6.47175 12.4194 6.58622C11.881 6.70069 11.3077 6.58881 10.8204 6.33675C10.3331 6.08467 9.92669 5.69985 9.59473 5.26843C10.1666 5.66693 10.9577 5.81622 11.5809 5.50052Z" fill="#2F2E41"/>
<path d="M15.9913 3.56872C15.4187 4.53685 16.4969 6.16808 15.4102 6.50681L15.4997 6.41895C16.1557 5.6271 14.7847 3.95111 15.4406 3.15926C15.5425 3.0431 15.63 2.91547 15.7012 2.77905" fill="#2F2E41"/>
<path d="M15.1045 4.0864C15.1045 4.0864 15.5896 2.30917 17.6693 1.89898C17.6716 1.89822 17.6795 1.89515 17.6896 1.89056C17.6959 1.88672 17.7037 1.88288 17.7115 1.87905C17.688 1.86601 17.6654 1.85452 17.6419 1.84301L17.6416 1.84295L17.6414 1.84279L17.6412 1.84254L17.6412 1.84224C17.6209 1.82384 17.6005 1.80544 17.5795 1.78781L17.5201 1.79011C17.5201 1.79011 15.4334 1.4658 15.1045 4.0864Z" fill="#FD6584"/>
<path d="M3.46868e-07 34.9234C-3.02628e-05 34.9335 0.00196531 34.9434 0.0058712 34.9527C0.00977709 34.962 0.015517 34.9705 0.0227603 34.9776C0.0300035 34.9847 0.0386069 34.9903 0.0480764 34.9941C0.0575459 34.998 0.0676941 34.9999 0.0779372 34.9999H46.9221C46.9427 34.9999 46.9626 34.9918 46.9772 34.9775C46.9918 34.9631 47 34.9437 47 34.9234C47 34.9031 46.9918 34.8837 46.9772 34.8693C46.9626 34.855 46.9427 34.8469 46.9221 34.8469H0.0779333C0.0676905 34.8469 0.0575432 34.8489 0.0480744 34.8527C0.0386055 34.8565 0.030002 34.8622 0.0227593 34.8693C0.0155165 34.8764 0.009777 34.8848 0.0058712 34.8941C0.0019654 34.9034 -2.98257e-05 34.9134 3.46868e-07 34.9234Z" fill="#CCCCCC"/>
</g>
<defs>
<clipPath id="clip0_1_2306">
<rect width="47" height="35" fill="white"/>
</clipPath>
</defs>
</svg>
