<svg width="110" height="79" viewBox="0 0 110 79" fill="none" xmlns="http://www.w3.org/2000/svg">
<g clip-path="url(#clip0_1_2359)">
<path d="M109.848 79H64.1382C64.0979 79 64.0593 78.9839 64.0308 78.9554C64.0023 78.9269 63.9863 78.8881 63.9863 78.8478C63.9863 78.8074 64.0023 78.7687 64.0308 78.7401C64.0593 78.7116 64.0979 78.6956 64.1382 78.6956H109.848C109.889 78.6956 109.927 78.7116 109.956 78.7401C109.984 78.7687 110 78.8074 110 78.8478C110 78.8881 109.984 78.9269 109.956 78.9554C109.927 78.9839 109.889 79 109.848 79Z" fill="#3F3D56"/>
<path d="M81.309 77.2568H79.4473L78.5615 70.0588L81.3095 70.059L81.309 77.2568Z" fill="#FFB8B8"/>
<path d="M78.1172 76.7236H81.7078V78.9897H75.8564C75.8564 78.6921 75.9149 78.3974 76.0285 78.1225C76.1421 77.8476 76.3087 77.5978 76.5186 77.3873C76.7285 77.1769 76.9777 77.01 77.252 76.8961C77.5263 76.7822 77.8203 76.7236 78.1172 76.7236Z" fill="#2F2E41"/>
<path d="M94.8179 75.143L93.1244 75.9182L89.335 69.7399L91.8343 68.5957L94.8179 75.143Z" fill="#FFB8B8"/>
<path d="M91.6941 75.987L94.9601 74.4918L95.8994 76.553L90.577 78.9897C90.4536 78.719 90.3847 78.4266 90.374 78.1292C90.3634 77.8318 90.4114 77.5353 90.5151 77.2564C90.6188 76.9776 90.7764 76.722 90.9786 76.5042C91.1809 76.2864 91.424 76.1107 91.6941 75.987Z" fill="#2F2E41"/>
<path d="M89.3962 52.9871C89.5746 52.8526 89.7214 52.6804 89.8262 52.4829C89.931 52.2853 89.9914 52.0671 90.003 51.8436C90.0146 51.6202 89.9771 51.3969 89.8933 51.1895C89.8095 50.9821 89.6813 50.7956 89.5179 50.6432L91.7064 45.6658L88.9261 46.1381L87.274 50.7923C87.0368 51.0846 86.9148 51.4539 86.9311 51.8303C86.9474 52.2067 87.1009 52.564 87.3625 52.8345C87.6241 53.1051 87.9756 53.27 88.3504 53.2981C88.7253 53.3263 89.0973 53.2156 89.3962 52.9871Z" fill="#FFB8B8"/>
<path d="M81.1907 75.359H79.4121C79.2397 75.3584 79.0737 75.2927 78.9474 75.1749C78.8211 75.0572 78.7437 74.896 78.7306 74.7236L76.8495 48.7619C76.8422 48.6624 76.8568 48.5626 76.8921 48.4693C76.9274 48.3761 76.9826 48.2916 77.0538 48.222C77.1251 48.1523 77.2106 48.0991 77.3045 48.0661C77.3984 48.033 77.4984 48.0209 77.5974 48.0306L88.7949 49.1255C88.9616 49.1419 89.1165 49.219 89.2302 49.3423C89.344 49.4656 89.4086 49.6264 89.4118 49.7943L89.6273 61.2463C89.6285 61.3085 89.6405 61.37 89.6628 61.428L93.8823 72.3955C93.9149 72.4802 93.9304 72.5706 93.9278 72.6614C93.9252 72.7522 93.9047 72.8415 93.8673 72.9243C93.83 73.007 93.7766 73.0815 93.7103 73.1433C93.6439 73.2052 93.566 73.2532 93.481 73.2846L91.6786 73.9502C91.5221 74.008 91.3498 74.0064 91.1944 73.9457C91.0389 73.8851 90.911 73.7695 90.8347 73.6208L85.6512 63.5184C85.623 63.4635 85.6023 63.405 85.5898 63.3445L84.7044 59.0682C84.6787 58.9442 84.6098 58.8334 84.51 58.7557C84.4103 58.678 84.2861 58.6385 84.1599 58.6442C84.0337 58.6499 83.9137 58.7006 83.8213 58.787C83.7289 58.8734 83.6703 58.9899 83.6559 59.1157L81.8697 74.7519C81.8506 74.919 81.7709 75.0732 81.6457 75.1852C81.5205 75.2972 81.3585 75.359 81.1907 75.359Z" fill="#2F2E41"/>
<path d="M82.0765 28.4623C84.1365 28.4623 85.8064 26.7884 85.8064 24.7237C85.8064 22.6589 84.1365 20.9851 82.0765 20.9851C80.0166 20.9851 78.3467 22.6589 78.3467 24.7237C78.3467 26.7884 80.0166 28.4623 82.0765 28.4623Z" fill="#FFB8B8"/>
<path d="M77.5586 48.9119C78.036 49.2421 83.4154 52.7952 89.5469 49.9691C89.4674 49.2828 88.7023 42.3919 89.3706 37.312C89.6876 34.9018 88.7301 32.669 86.7436 31.1859C85.6647 30.3843 84.3921 29.8855 83.0569 29.741C81.7217 29.5965 80.3722 29.8115 79.1475 30.3637C79.0468 30.4089 78.9454 30.4559 78.8433 30.5048L77.5586 48.9119Z" fill="#FF992D"/>
<path d="M89.6055 49.9124C89.5108 49.9124 89.4172 49.8926 89.3306 49.8543C89.244 49.8161 89.1663 49.7601 89.1025 49.6901L88.2866 48.7979C88.2073 48.7107 88.1516 48.6044 88.1251 48.4894C88.0985 48.3743 88.102 48.2544 88.135 48.1411L90.0036 41.8017L87.1605 35.8171C87.0358 35.554 87.0053 35.2559 87.074 34.9729C87.1346 34.7245 87.2689 34.5004 87.4591 34.33C87.6494 34.1597 87.8868 34.0511 88.1398 34.0187C88.3929 33.9863 88.6498 34.0316 88.8767 34.1485C89.1036 34.2654 89.2898 34.4485 89.4107 34.6737L93.2542 40.9248C93.4038 41.1676 93.4915 41.4436 93.5098 41.7284C93.528 42.0132 93.4763 42.2981 93.359 42.5581L90.2291 49.5091C90.1827 49.6125 90.1114 49.7027 90.0215 49.7716C89.9317 49.8404 89.8261 49.8858 89.7144 49.9036C89.6784 49.9094 89.6419 49.9123 89.6055 49.9124Z" fill="#FF2E2C"/>
<path opacity="0.2" d="M80.3192 49.1016H78.8291L81.4302 36.8325L81.5803 36.8521L81.0017 48.451C80.9931 48.6266 80.9174 48.792 80.7903 48.9132C80.6633 49.0343 80.4946 49.1018 80.3192 49.1016Z" fill="black"/>
<path d="M78.9409 52.1521C79.0875 51.9834 79.1954 51.7844 79.2571 51.5694C79.3187 51.3543 79.3325 51.1283 79.2976 50.9073C79.2626 50.6863 79.1798 50.4756 79.0548 50.2902C78.9299 50.1047 78.7659 49.949 78.5744 49.834L79.6842 44.5095L77.0623 45.5501L76.4103 50.4468C76.2388 50.782 76.196 51.1687 76.2899 51.5335C76.3838 51.8983 76.608 52.2159 76.9199 52.4261C77.2319 52.6363 77.6099 52.7245 77.9823 52.674C78.3548 52.6235 78.6959 52.4378 78.9409 52.1521Z" fill="#FFB8B8"/>
<path d="M78.7907 49.1169C78.7649 49.1169 78.7392 49.1155 78.7136 49.1126L77.1244 48.9356C76.9527 48.9159 76.7947 48.8319 76.682 48.7004C76.5694 48.569 76.5105 48.3997 76.5171 48.2265L77.1746 32.277C77.1953 31.7768 77.397 31.3012 77.7422 30.9393C78.0874 30.5773 78.5523 30.3539 79.0499 30.3107C79.5476 30.2675 80.0439 30.4075 80.446 30.7045C80.8481 31.0016 81.1284 31.4353 81.2346 31.9246L81.6581 33.8775L81.6561 33.8913L79.4649 48.5333C79.4411 48.6955 79.3599 48.8438 79.2362 48.9509C79.1124 49.0581 78.9542 49.117 78.7907 49.1169Z" fill="#FF2E2C"/>
<path d="M85.1496 28.0197C84.7628 28.0862 84.4445 27.5465 84.3964 27.167C84.3483 26.7874 84.4863 26.424 84.5013 26.0469C84.5164 25.6698 84.339 25.2116 83.9482 25.0997C83.5386 24.9825 83.1589 25.3119 82.7395 25.2723C82.1552 25.2171 81.8618 24.5316 81.791 23.9771C81.7202 23.4226 81.6646 22.766 81.1585 22.4498C80.654 22.1346 80.0299 22.3639 79.4502 22.3737C78.4705 22.3903 77.4731 21.6414 77.2441 20.7173C77.363 20.7516 77.4899 20.7452 77.6047 20.6991C77.7195 20.653 77.8157 20.5699 77.8781 20.4628C77.9272 20.3486 77.9372 20.2213 77.9066 20.1007C77.876 19.9802 77.8065 19.8732 77.7089 19.7964L78.8194 20.3415C78.6676 20.0318 78.8969 19.6791 79.2124 19.5619C79.5279 19.4446 79.895 19.4973 80.2432 19.5515C81.9821 19.8223 83.9961 19.6888 85.1496 21.0178C85.9485 21.9382 86.6061 23.6898 86.5163 24.8232C86.4265 25.9565 85.1496 28.0197 85.1496 28.0197Z" fill="#2F2E41"/>
<mask id="path-15-inside-1_1_2359" fill="white">
<path d="M42.8248 70.1715H2.88531C2.60347 70.1712 2.33327 70.0588 2.13398 69.8591C1.93469 69.6593 1.82259 69.3885 1.82228 69.106L2.05993e-06 1.0696C-0.000273016 0.929408 0.027004 0.790537 0.0802751 0.660913C0.133546 0.531289 0.211768 0.413451 0.310474 0.314129C0.409181 0.214806 0.52644 0.135945 0.655554 0.0820469C0.784668 0.0281484 0.923108 0.000268593 1.06297 0H41.0024C41.2843 0.000316667 41.5545 0.112677 41.7538 0.312431C41.9531 0.512184 42.0652 0.783017 42.0655 1.06551L42.3956 13.3909L42.0921 13.3991L41.7618 1.0696C41.7621 0.969371 41.7427 0.870069 41.7047 0.777363C41.6667 0.684657 41.6108 0.600365 41.5403 0.529306C41.4698 0.458247 41.386 0.401812 41.2937 0.363227C41.2014 0.324642 41.1024 0.304663 41.0024 0.304432H1.06297C0.861663 0.304666 0.668668 0.384927 0.526321 0.527606C0.383974 0.670285 0.3039 0.863732 0.303666 1.06551L2.12595 69.1019C2.12565 69.2021 2.14506 69.3014 2.18307 69.3941C2.22108 69.4868 2.27694 69.5711 2.34746 69.6422C2.41798 69.7132 2.50177 69.7697 2.59406 69.8083C2.68635 69.8468 2.78531 69.8668 2.88531 69.8671H42.8248C43.0261 69.8668 43.2191 69.7866 43.3614 69.6439C43.5038 69.5012 43.5839 69.3078 43.5841 69.106L43.2295 55.8673L43.5331 55.8591L43.8878 69.1019C43.888 69.2421 43.8608 69.381 43.8075 69.5106C43.7542 69.6402 43.676 69.758 43.5773 69.8574C43.4786 69.9567 43.3613 70.0355 43.2322 70.0894C43.1031 70.1433 42.9646 70.1712 42.8248 70.1715Z"/>
</mask>
<path d="M42.8248 70.1715H2.88531C2.60347 70.1712 2.33327 70.0588 2.13398 69.8591C1.93469 69.6593 1.82259 69.3885 1.82228 69.106L2.05993e-06 1.0696C-0.000273016 0.929408 0.027004 0.790537 0.0802751 0.660913C0.133546 0.531289 0.211768 0.413451 0.310474 0.314129C0.409181 0.214806 0.52644 0.135945 0.655554 0.0820469C0.784668 0.0281484 0.923108 0.000268593 1.06297 0H41.0024C41.2843 0.000316667 41.5545 0.112677 41.7538 0.312431C41.9531 0.512184 42.0652 0.783017 42.0655 1.06551L42.3956 13.3909L42.0921 13.3991L41.7618 1.0696C41.7621 0.969371 41.7427 0.870069 41.7047 0.777363C41.6667 0.684657 41.6108 0.600365 41.5403 0.529306C41.4698 0.458247 41.386 0.401812 41.2937 0.363227C41.2014 0.324642 41.1024 0.304663 41.0024 0.304432H1.06297C0.861663 0.304666 0.668668 0.384927 0.526321 0.527606C0.383974 0.670285 0.3039 0.863732 0.303666 1.06551L2.12595 69.1019C2.12565 69.2021 2.14506 69.3014 2.18307 69.3941C2.22108 69.4868 2.27694 69.5711 2.34746 69.6422C2.41798 69.7132 2.50177 69.7697 2.59406 69.8083C2.68635 69.8468 2.78531 69.8668 2.88531 69.8671H42.8248C43.0261 69.8668 43.2191 69.7866 43.3614 69.6439C43.5038 69.5012 43.5839 69.3078 43.5841 69.106L43.2295 55.8673L43.5331 55.8591L43.8878 69.1019C43.888 69.2421 43.8608 69.381 43.8075 69.5106C43.7542 69.6402 43.676 69.758 43.5773 69.8574C43.4786 69.9567 43.3613 70.0355 43.2322 70.0894C43.1031 70.1433 42.9646 70.1712 42.8248 70.1715Z" fill="#8B8B8B"/>
<path d="M42.8248 70.1715V71.1715H42.8267L42.8248 70.1715ZM2.88531 70.1715L2.88418 71.1715H2.88531V70.1715ZM1.82228 69.106L2.82228 69.1049L2.82226 69.092L2.82192 69.0792L1.82228 69.106ZM2.05993e-06 1.0696L-0.999996 1.07156L-0.999972 1.08397L-0.999639 1.09637L2.05993e-06 1.0696ZM1.06297 0V-1L1.06105 -0.999998L1.06297 0ZM41.0024 0L41.0036 -1H41.0024V0ZM42.0655 1.06551L41.0655 1.06663L41.0655 1.07946L41.0658 1.09229L42.0655 1.06551ZM42.3956 13.3909L42.4226 14.3905L43.422 14.3636L43.3953 13.3641L42.3956 13.3909ZM42.0921 13.3991L41.0924 13.4259L41.1192 14.4256L42.119 14.3987L42.0921 13.3991ZM41.7618 1.0696L40.7618 1.06661L40.7618 1.0815L40.7621 1.09638L41.7618 1.0696ZM41.0024 0.304432L41.0048 -0.695568H41.0024V0.304432ZM1.06297 0.304432V-0.695569L1.06181 -0.695568L1.06297 0.304432ZM0.303666 1.06551L-0.696333 1.06435L-0.696349 1.07832L-0.695975 1.09228L0.303666 1.06551ZM2.12595 69.1019L3.12594 69.1048L3.12599 69.09L3.12559 69.0751L2.12595 69.1019ZM2.88531 69.8671L2.88296 70.8671H2.88531V69.8671ZM42.8248 69.8671V70.8671H42.8259L42.8248 69.8671ZM43.5841 69.106L44.5841 69.1071L44.5841 69.0932L44.5837 69.0792L43.5841 69.106ZM43.2295 55.8673L43.2025 54.8677L42.203 54.8946L42.2298 55.8941L43.2295 55.8673ZM43.5331 55.8591L44.5327 55.8323L44.5059 54.8326L43.5061 54.8595L43.5331 55.8591ZM43.8878 69.1019L44.8878 69.1L44.8877 69.0875L44.8874 69.0751L43.8878 69.1019ZM42.8248 69.1715H2.88531V71.1715H42.8248V69.1715ZM2.88643 69.1715C2.87018 69.1715 2.85412 69.165 2.84191 69.1528L1.42605 70.5653C1.81242 70.9526 2.33677 71.1709 2.88418 71.1715L2.88643 69.1715ZM2.84191 69.1528C2.82963 69.1405 2.8223 69.1233 2.82228 69.1049L0.822278 69.1071C0.82289 69.6537 1.03976 70.1781 1.42605 70.5653L2.84191 69.1528ZM2.82192 69.0792L0.999644 1.04282L-0.999639 1.09637L0.822636 69.1328L2.82192 69.0792ZM1 1.06764C0.999982 1.05845 1.00177 1.0494 1.00521 1.04103L-0.844663 0.280795C-0.947764 0.53167 -1.00053 0.800365 -0.999996 1.07156L1 1.06764ZM1.00521 1.04103C1.00865 1.03266 1.01364 1.02521 1.01978 1.01903L-0.398827 -0.390777C-0.590107 -0.198305 -0.741561 0.0299186 -0.844663 0.280795L1.00521 1.04103ZM1.01978 1.01903C1.0259 1.01287 1.03306 1.00809 1.04078 1.00487L0.270325 -0.840774C0.0198163 -0.7362 -0.207543 -0.583254 -0.398827 -0.390777L1.01978 1.01903ZM1.04078 1.00487C1.0485 1.00165 1.05668 1.00001 1.06489 0.999998L1.06105 -0.999998C0.789534 -0.999477 0.520839 -0.94535 0.270325 -0.840774L1.04078 1.00487ZM1.06297 1H41.0024V-1H1.06297V1ZM41.0013 0.999999C41.0176 1.00002 41.0336 1.00647 41.0458 1.01871L42.4617 -0.393851C42.0753 -0.781119 41.551 -0.999384 41.0036 -0.999999L41.0013 0.999999ZM41.0458 1.01871C41.0581 1.03103 41.0654 1.04821 41.0655 1.06663L43.0655 1.06439C43.0649 0.51782 42.848 -0.0066576 42.4617 -0.393851L41.0458 1.01871ZM41.0658 1.09229L41.396 13.4177L43.3953 13.3641L43.0651 1.03873L41.0658 1.09229ZM42.3687 12.3913L42.0651 12.3994L42.119 14.3987L42.4226 14.3905L42.3687 12.3913ZM43.0917 13.3723L42.7614 1.04282L40.7621 1.09638L41.0924 13.4259L43.0917 13.3723ZM42.7618 1.07258C42.7625 0.841292 42.7177 0.612089 42.6299 0.398046L40.7794 1.15668C40.7677 1.12805 40.7617 1.09745 40.7618 1.06661L42.7618 1.07258ZM42.6299 0.398046C42.5422 0.183985 42.4132 -0.0107918 42.2501 -0.175096L40.8305 1.23371C40.8085 1.21152 40.7912 1.18533 40.7794 1.15668L42.6299 0.398046ZM42.2501 -0.175096C42.087 -0.339405 41.8931 -0.470029 41.6794 -0.559381L40.908 1.28583C40.8788 1.27365 40.8525 1.2559 40.8305 1.23371L42.2501 -0.175096ZM41.6794 -0.559381C41.4657 -0.648733 41.2365 -0.695029 41.0048 -0.695566L41.0001 1.30443C40.9684 1.30436 40.9371 1.29802 40.908 1.28583L41.6794 -0.559381ZM41.0024 -0.695568H1.06297V1.30443H41.0024V-0.695568ZM1.06181 -0.695568C0.594929 -0.695025 0.147805 -0.50886 -0.18161 -0.178675L1.23425 1.23389C1.18953 1.27871 1.1284 1.30436 1.06413 1.30443L1.06181 -0.695568ZM-0.18161 -0.178675C-0.510947 0.151431 -0.695794 0.598505 -0.696333 1.06435L1.30367 1.06667C1.30359 1.12896 1.2789 1.18914 1.23425 1.23389L-0.18161 -0.178675ZM-0.695975 1.09228L1.1263 69.1287L3.12559 69.0751L1.30331 1.03874L-0.695975 1.09228ZM1.12595 69.099C1.12527 69.3302 1.17006 69.5594 1.25781 69.7735L3.10833 69.0148C3.12007 69.0434 3.12603 69.074 3.12594 69.1048L1.12595 69.099ZM1.25781 69.7735C1.34556 69.9875 1.47459 70.1823 1.63766 70.3466L3.05725 68.9378C3.07928 68.96 3.09659 68.9862 3.10833 69.0148L1.25781 69.7735ZM1.63766 70.3466C1.80073 70.5109 1.99462 70.6415 2.20831 70.7309L2.97981 68.8857C3.00893 68.8978 3.03522 68.9156 3.05725 68.9378L1.63766 70.3466ZM2.20831 70.7309C2.42203 70.8202 2.65129 70.8665 2.88296 70.8671L2.88766 68.8671C2.91934 68.8671 2.95066 68.8735 2.97981 68.8857L2.20831 70.7309ZM2.88531 70.8671H42.8248V68.8671H2.88531V70.8671ZM42.8259 70.8671C43.2928 70.8665 43.7399 70.6804 44.0694 70.3502L42.6535 68.9376C42.6982 68.8928 42.7594 68.8671 42.8236 68.8671L42.8259 70.8671ZM44.0694 70.3502C44.3987 70.0201 44.5835 69.573 44.5841 69.1071L42.5841 69.1048C42.5842 69.0426 42.6088 68.9824 42.6535 68.9376L44.0694 70.3502ZM44.5837 69.0792L44.2291 55.8405L42.2298 55.8941L42.5844 69.1328L44.5837 69.0792ZM43.2564 56.8669L43.56 56.8588L43.5061 54.8595L43.2025 54.8677L43.2564 56.8669ZM42.5334 55.8859L42.8881 69.1287L44.8874 69.0751L44.5327 55.8323L42.5334 55.8859ZM42.8878 69.1038C42.8878 69.113 42.886 69.1221 42.8826 69.1304L44.7324 69.8907C44.8355 69.6398 44.8883 69.3711 44.8878 69.1L42.8878 69.1038ZM42.8826 69.1304C42.8791 69.1388 42.8741 69.1463 42.868 69.1524L44.2866 70.5623C44.4779 70.3698 44.6293 70.1416 44.7324 69.8907L42.8826 69.1304ZM42.868 69.1524C42.8619 69.1586 42.8547 69.1634 42.847 69.1666L43.6174 71.0123C43.8679 70.9077 44.0953 70.7547 44.2866 70.5623L42.868 69.1524ZM42.847 69.1666C42.8393 69.1698 42.8311 69.1715 42.8228 69.1715L42.8267 71.1715C43.0982 71.171 43.3669 71.1169 43.6174 71.0123L42.847 69.1666Z" fill="black" mask="url(#path-15-inside-1_1_2359)"/>
<mask id="path-17-inside-2_1_2359" fill="white">
<path d="M42.8847 31.6569L42.5811 31.665L42.7375 37.508L43.0412 37.4998L42.8847 31.6569Z"/>
</mask>
<path d="M42.8847 31.6569L42.5811 31.665L42.7375 37.508L43.0412 37.4998L42.8847 31.6569Z" fill="#CCCCCC"/>
<path d="M42.5811 31.665L42.5543 30.6654L41.5546 30.6923L41.5814 31.6919L42.5811 31.665ZM42.8847 31.6569L43.8843 31.63L43.8576 30.6303L42.8579 30.6572L42.8847 31.6569ZM43.0412 37.4998L43.068 38.4994L44.0676 38.4725L44.0408 37.4729L43.0412 37.4998ZM42.7375 37.508L41.7379 37.5349L41.7647 38.5345L42.7643 38.5076L42.7375 37.508ZM42.6078 32.6647L42.9115 32.6565L42.8579 30.6572L42.5543 30.6654L42.6078 32.6647ZM41.8851 31.6838L42.0416 37.5267L44.0408 37.4729L43.8843 31.63L41.8851 31.6838ZM43.0144 36.5001L42.7108 36.5083L42.7643 38.5076L43.068 38.4994L43.0144 36.5001ZM43.7372 37.4811L43.5807 31.6381L41.5814 31.6919L41.7379 37.5349L43.7372 37.4811Z" fill="black" mask="url(#path-17-inside-2_1_2359)"/>
<mask id="path-19-inside-3_1_2359" fill="white">
<path d="M39.2407 64.1756H6.15637C5.916 64.1753 5.68555 64.0795 5.51558 63.9091C5.34561 63.7387 5.25 63.5078 5.24973 63.2668L3.74024 6.9087C3.73994 6.78909 3.76316 6.67059 3.80856 6.55998C3.85396 6.44936 3.92066 6.3488 4.00485 6.26403C4.08904 6.17925 4.18906 6.11194 4.29921 6.06592C4.40936 6.01991 4.52747 5.9961 4.64681 5.99585H37.7312C37.9715 5.99612 38.202 6.09196 38.372 6.26232C38.5419 6.43269 38.6375 6.66368 38.6378 6.90461L38.9112 13.3886L38.6078 13.4014L38.3342 6.911C38.3348 6.83118 38.3196 6.75203 38.2895 6.6781C38.2595 6.60417 38.2152 6.53691 38.1592 6.48017C38.1031 6.42344 38.0365 6.37834 37.9631 6.34747C37.8896 6.3166 37.8108 6.30057 37.7312 6.30029H4.64681C4.48696 6.30048 4.33372 6.36421 4.22069 6.4775C4.10767 6.59079 4.04409 6.7444 4.0439 6.90461L5.55339 63.2627C5.55308 63.3424 5.56843 63.4213 5.59857 63.495C5.62871 63.5687 5.67305 63.6357 5.72905 63.6922C5.78505 63.7487 5.85162 63.7936 5.92494 63.8243C5.99827 63.855 6.07691 63.8709 6.15637 63.8712H39.2407C39.4006 63.871 39.5538 63.8072 39.6669 63.6939C39.7799 63.5807 39.8435 63.427 39.8437 63.2668L39.6482 55.8672L39.9518 55.8592L40.1473 63.2628C40.1476 63.3824 40.1244 63.5009 40.079 63.6115C40.0336 63.7221 39.9669 63.8227 39.8827 63.9075C39.7985 63.9922 39.6985 64.0595 39.5883 64.1055C39.4782 64.1515 39.3601 64.1753 39.2407 64.1756Z"/>
</mask>
<path d="M39.2407 64.1756H6.15637C5.916 64.1753 5.68555 64.0795 5.51558 63.9091C5.34561 63.7387 5.25 63.5078 5.24973 63.2668L3.74024 6.9087C3.73994 6.78909 3.76316 6.67059 3.80856 6.55998C3.85396 6.44936 3.92066 6.3488 4.00485 6.26403C4.08904 6.17925 4.18906 6.11194 4.29921 6.06592C4.40936 6.01991 4.52747 5.9961 4.64681 5.99585H37.7312C37.9715 5.99612 38.202 6.09196 38.372 6.26232C38.5419 6.43269 38.6375 6.66368 38.6378 6.90461L38.9112 13.3886L38.6078 13.4014L38.3342 6.911C38.3348 6.83118 38.3196 6.75203 38.2895 6.6781C38.2595 6.60417 38.2152 6.53691 38.1592 6.48017C38.1031 6.42344 38.0365 6.37834 37.9631 6.34747C37.8896 6.3166 37.8108 6.30057 37.7312 6.30029H4.64681C4.48696 6.30048 4.33372 6.36421 4.22069 6.4775C4.10767 6.59079 4.04409 6.7444 4.0439 6.90461L5.55339 63.2627C5.55308 63.3424 5.56843 63.4213 5.59857 63.495C5.62871 63.5687 5.67305 63.6357 5.72905 63.6922C5.78505 63.7487 5.85162 63.7936 5.92494 63.8243C5.99827 63.855 6.07691 63.8709 6.15637 63.8712H39.2407C39.4006 63.871 39.5538 63.8072 39.6669 63.6939C39.7799 63.5807 39.8435 63.427 39.8437 63.2668L39.6482 55.8672L39.9518 55.8592L40.1473 63.2628C40.1476 63.3824 40.1244 63.5009 40.079 63.6115C40.0336 63.7221 39.9669 63.8227 39.8827 63.9075C39.7985 63.9922 39.6985 64.0595 39.5883 64.1055C39.4782 64.1515 39.3601 64.1753 39.2407 64.1756Z" fill="#8B8B8B"/>
<path d="M39.2407 64.1756V65.1756L39.2428 65.1756L39.2407 64.1756ZM6.15637 64.1756L6.15523 65.1756H6.15637V64.1756ZM5.24973 63.2668L6.24973 63.2657L6.24971 63.2529L6.24937 63.2401L5.24973 63.2668ZM3.74024 6.9087L2.74024 6.91119L2.74027 6.92333L2.7406 6.93547L3.74024 6.9087ZM4.64681 5.99585V4.99585L4.64473 4.99585L4.64681 5.99585ZM37.7312 5.99585L37.7323 4.99585H37.7312V5.99585ZM38.6378 6.90461L37.6378 6.90574L37.6378 6.92625L37.6387 6.94674L38.6378 6.90461ZM38.9112 13.3886L38.9533 14.3877L39.9524 14.3456L39.9103 13.3464L38.9112 13.3886ZM38.6078 13.4014L37.6087 13.4435L37.6508 14.4426L38.6499 14.4005L38.6078 13.4014ZM38.3342 6.911L37.3343 6.9043L37.3341 6.92872L37.3351 6.95311L38.3342 6.911ZM37.7312 6.30029L37.7347 5.30029H37.7312V6.30029ZM4.64681 6.30029V5.30029L4.64562 5.30029L4.64681 6.30029ZM4.0439 6.90461L3.0439 6.90346L3.04389 6.91743L3.04426 6.93139L4.0439 6.90461ZM5.55339 63.2627L6.55339 63.2667L6.55345 63.2513L6.55304 63.236L5.55339 63.2627ZM6.15637 63.8712L6.15371 64.8712H6.15637V63.8712ZM39.2407 63.8712V64.8712H39.2419L39.2407 63.8712ZM39.8437 63.2668L40.8437 63.268L40.8437 63.2542L40.8433 63.2404L39.8437 63.2668ZM39.6482 55.8672L39.6217 54.8675L38.6221 54.894L38.6485 55.8936L39.6482 55.8672ZM39.9518 55.8592L40.9514 55.8328L40.925 54.8331L39.9253 54.8595L39.9518 55.8592ZM40.1473 63.2628L41.1473 63.2604L41.1473 63.2484L41.147 63.2364L40.1473 63.2628ZM39.2407 63.1756H6.15637V65.1756H39.2407V63.1756ZM6.15751 63.1756C6.1827 63.1756 6.2064 63.1857 6.22351 63.2028L4.80765 64.6154C5.1647 64.9733 5.64929 65.175 6.15523 65.1756L6.15751 63.1756ZM6.22351 63.2028C6.24054 63.2199 6.2497 63.2426 6.24973 63.2657L4.24973 63.268C4.2503 63.773 4.45067 64.2576 4.80765 64.6154L6.22351 63.2028ZM6.24937 63.2401L4.73988 6.88192L2.7406 6.93547L4.25009 63.2936L6.24937 63.2401ZM4.74023 6.90621C4.74026 6.91763 4.73805 6.92901 4.73366 6.93969L2.88345 6.18026C2.78826 6.41218 2.73962 6.66054 2.74024 6.91119L4.74023 6.90621ZM4.73366 6.93969C4.72927 6.95039 4.72276 6.96026 4.71439 6.96869L3.29531 5.55936C3.11856 5.73733 2.97865 5.94834 2.88345 6.18026L4.73366 6.93969ZM4.71439 6.96869C4.70602 6.97711 4.69595 6.98394 4.68467 6.98865L3.91375 5.1432C3.68217 5.23994 3.47205 5.3814 3.29531 5.55936L4.71439 6.96869ZM4.68467 6.98865C4.6734 6.99336 4.66123 6.99582 4.64889 6.99585L4.64473 4.99585C4.39371 4.99637 4.14532 5.04646 3.91375 5.1432L4.68467 6.98865ZM4.64681 6.99585H37.7312V4.99585H4.64681V6.99585ZM37.73 6.99585C37.7048 6.99582 37.6811 6.98575 37.664 6.9686L39.0799 5.55604C38.7228 5.19816 38.2383 4.99643 37.7323 4.99585L37.73 6.99585ZM37.664 6.9686C37.647 6.95153 37.6378 6.92888 37.6378 6.90574L39.6378 6.90348C39.6372 6.39847 39.4369 5.91385 39.0799 5.55604L37.664 6.9686ZM37.6387 6.94674L37.9121 13.4307L39.9103 13.3464L39.6369 6.86248L37.6387 6.94674ZM38.8691 12.3895L38.5657 12.4022L38.6499 14.4005L38.9533 14.3877L38.8691 12.3895ZM39.6069 13.3593L39.3333 6.8689L37.3351 6.95311L37.6087 13.4435L39.6069 13.3593ZM39.3342 6.91771C39.3356 6.70662 39.2955 6.49727 39.216 6.30166L37.3631 7.05455C37.3437 7.00679 37.3339 6.95574 37.3343 6.9043L39.3342 6.91771ZM39.216 6.30166C39.1365 6.10601 39.0192 5.92788 38.8707 5.77754L37.4476 7.18281C37.4112 7.14593 37.3825 7.10233 37.3631 7.05455L39.216 6.30166ZM38.8707 5.77754C38.7222 5.62718 38.5455 5.50754 38.3505 5.42559L37.5756 7.26936C37.5275 7.24915 37.484 7.21969 37.4476 7.18281L38.8707 5.77754ZM38.3505 5.42559C38.1555 5.34364 37.9463 5.30105 37.7347 5.30029L37.7276 7.30028C37.6753 7.30009 37.6237 7.28957 37.5756 7.26936L38.3505 5.42559ZM37.7312 5.30029H4.64681V7.30029H37.7312V5.30029ZM4.64562 5.30029C4.22021 5.30079 3.81284 5.47043 3.51275 5.77123L4.92864 7.18377C4.85459 7.25799 4.75371 7.30016 4.648 7.30029L4.64562 5.30029ZM3.51275 5.77123C3.21274 6.07195 3.04439 6.47918 3.0439 6.90346L5.0439 6.90577C5.04378 7.00961 5.00259 7.10964 4.92864 7.18377L3.51275 5.77123ZM3.04426 6.93139L4.55375 63.2895L6.55304 63.236L5.04355 6.87784L3.04426 6.93139ZM4.5534 63.2587C4.55256 63.4695 4.59317 63.6784 4.67298 63.8736L6.52415 63.1165C6.54368 63.1642 6.55359 63.2153 6.55339 63.2667L4.5534 63.2587ZM4.67298 63.8736C4.7528 64.0687 4.87027 64.2463 5.01877 64.3962L6.43932 62.9883C6.47582 63.0251 6.50461 63.0687 6.52415 63.1165L4.67298 63.8736ZM5.01877 64.3962C5.16727 64.546 5.34392 64.6652 5.53873 64.7467L6.31115 62.9019C6.35931 62.9221 6.40284 62.9515 6.43932 62.9883L5.01877 64.3962ZM5.53873 64.7467C5.73356 64.8283 5.94255 64.8706 6.15371 64.8712L6.15903 62.8712C6.21126 62.8713 6.26297 62.8818 6.31115 62.9019L5.53873 64.7467ZM6.15637 64.8712H39.2407V62.8712H6.15637V64.8712ZM39.2419 64.8712C39.6673 64.8707 40.0747 64.701 40.3748 64.4002L38.9589 62.9877C39.033 62.9134 39.1339 62.8713 39.2396 62.8712L39.2419 64.8712ZM40.3748 64.4002C40.6748 64.0995 40.8432 63.6923 40.8437 63.268L38.8437 63.2657C38.8438 63.1618 38.885 63.0618 38.9589 62.9877L40.3748 64.4002ZM40.8433 63.2404L40.6478 55.8408L38.6485 55.8936L38.844 63.2932L40.8433 63.2404ZM39.6746 56.8668L39.9782 56.8588L39.9253 54.8595L39.6217 54.8675L39.6746 56.8668ZM38.9521 55.8856L39.1477 63.2892L41.147 63.2364L40.9514 55.8328L38.9521 55.8856ZM39.1473 63.2653C39.1473 63.2538 39.1495 63.2425 39.1539 63.2318L41.0041 63.9913C41.0993 63.7594 41.1479 63.511 41.1473 63.2604L39.1473 63.2653ZM39.1539 63.2318C39.1583 63.2211 39.1648 63.2112 39.1732 63.2028L40.5922 64.6121C40.7689 64.4342 40.9089 64.2232 41.0041 63.9913L39.1539 63.2318ZM39.1732 63.2028C39.1816 63.1943 39.1916 63.1875 39.2029 63.1828L39.9737 65.0283C40.2053 64.9316 40.4154 64.7901 40.5922 64.6121L39.1732 63.2028ZM39.2029 63.1828C39.2141 63.1781 39.2263 63.1756 39.2387 63.1756L39.2428 65.1756C39.4938 65.1751 39.7422 65.125 39.9737 65.0283L39.2029 63.1828Z" fill="black" mask="url(#path-19-inside-3_1_2359)"/>
<mask id="path-21-inside-4_1_2359" fill="white">
<path d="M39.3163 31.8091L39.0127 31.8171L39.1654 37.6013L39.4691 37.5933L39.3163 31.8091Z"/>
</mask>
<path d="M39.3163 31.8091L39.0127 31.8171L39.1654 37.6013L39.4691 37.5933L39.3163 31.8091Z" fill="#CCCCCC"/>
<path d="M39.0127 31.8171L38.9863 30.8175L37.9866 30.844L38.013 31.8437L39.0127 31.8171ZM39.3163 31.8091L40.316 31.7826L40.2896 30.7829L39.2899 30.8094L39.3163 31.8091ZM39.4691 37.5933L39.4955 38.5929L40.4951 38.5664L40.4687 37.5668L39.4691 37.5933ZM39.1654 37.6013L38.1658 37.6279L38.1922 38.6275L39.1918 38.601L39.1654 37.6013ZM39.0391 32.8168L39.3427 32.8087L39.2899 30.8094L38.9863 30.8175L39.0391 32.8168ZM38.3167 31.8356L38.4694 37.6198L40.4687 37.5668L40.316 31.7826L38.3167 31.8356ZM39.4427 36.5936L39.139 36.6017L39.1918 38.601L39.4955 38.5929L39.4427 36.5936ZM40.1651 37.5748L40.0123 31.7906L38.013 31.8437L38.1658 37.6279L40.1651 37.5748Z" fill="black" mask="url(#path-21-inside-4_1_2359)"/>
<path d="M48.0445 31.813H9.31989C9.03956 31.8127 8.77068 31.7015 8.57165 31.5037C8.37262 31.3058 8.25951 31.0372 8.2569 30.7563L7.64941 14.3082C7.64973 14.0257 7.76183 13.7549 7.96112 13.5551C8.1604 13.3554 8.43061 13.243 8.71244 13.2427H47.437C47.7173 13.243 47.9862 13.3541 48.1853 13.552C48.3843 13.7499 48.4974 14.0184 48.5 14.2994L49.1075 30.7475C49.1072 31.03 48.9951 31.3008 48.7958 31.5006C48.5965 31.7003 48.3263 31.8127 48.0445 31.813ZM7.95317 14.3002L8.56058 30.7475C8.56081 30.9493 8.64089 31.1427 8.78323 31.2854C8.92558 31.4281 9.11858 31.5083 9.31989 31.5086H48.0445C48.2444 31.5083 48.4362 31.4292 48.5783 31.2882C48.7204 31.1473 48.8014 30.9559 48.8037 30.7555L48.1963 14.3082C48.1961 14.1064 48.116 13.913 47.9737 13.7703C47.8313 13.6276 47.6383 13.5473 47.437 13.5471H8.71244C8.51252 13.5473 8.32073 13.6265 8.17862 13.7675C8.03651 13.9084 7.95551 14.0998 7.95317 14.3002Z" fill="#3F3D56"/>
<path d="M55.3335 56.0154H16.6089C16.3286 56.0151 16.0597 55.9039 15.8607 55.7061C15.6617 55.5082 15.5486 55.2396 15.546 54.9587L14.9385 38.5106C14.9388 38.2281 15.0509 37.9573 15.2502 37.7575C15.4495 37.5577 15.7197 37.4454 16.0015 37.4451H54.7261C55.0064 37.4454 55.2753 37.5565 55.4743 37.7544C55.6734 37.9523 55.7865 38.2208 55.7891 38.5018L56.3965 54.9499C56.3962 55.2324 56.2841 55.5032 56.0848 55.703C55.8856 55.9027 55.6154 56.0151 55.3335 56.0154ZM15.2422 38.5026L15.8496 54.9499C15.8499 55.1517 15.9299 55.3451 16.0723 55.4878C16.2146 55.6305 16.4076 55.7107 16.6089 55.711H55.3335C55.5334 55.7107 55.7252 55.6316 55.8673 55.4906C56.0095 55.3497 56.0904 55.1583 56.0928 54.9579L55.4854 38.5106C55.4852 38.3088 55.4051 38.1154 55.2627 37.9727C55.1204 37.83 54.9274 37.7497 54.7261 37.7495H16.0015C15.8016 37.7497 15.6098 37.8289 15.4677 37.9698C15.3256 38.1108 15.2446 38.3022 15.2422 38.5026Z" fill="#3F3D56"/>
<path d="M25.7967 41.0222C25.5349 41.0222 25.2838 41.1265 25.0987 41.312C24.9136 41.4976 24.8096 41.7492 24.8096 42.0116C24.8096 42.274 24.9136 42.5257 25.0987 42.7112C25.2838 42.8968 25.5349 43.001 25.7967 43.001H45.5386C45.8004 43.001 46.0515 42.8968 46.2366 42.7112C46.4217 42.5257 46.5257 42.274 46.5257 42.0116C46.5257 41.7492 46.4217 41.4976 46.2366 41.312C46.0515 41.1265 45.8004 41.0222 45.5386 41.0222H25.7967Z" fill="#FFEAD7"/>
<path d="M25.7967 45.7407C25.5349 45.7407 25.2838 45.845 25.0987 46.0305C24.9136 46.2161 24.8096 46.4677 24.8096 46.7301C24.8096 46.9925 24.9136 47.2442 25.0987 47.4297C25.2838 47.6153 25.5349 47.7195 25.7967 47.7195H45.5386C45.8004 47.7195 46.0515 47.6153 46.2366 47.4297C46.4217 47.2442 46.5257 46.9925 46.5257 46.7301C46.5257 46.4677 46.4217 46.2161 46.2366 46.0305C46.0515 45.845 45.8004 45.7407 45.5386 45.7407H25.7967Z" fill="#FFEAD7"/>
<path d="M25.7967 50.4595C25.5349 50.4595 25.2838 50.5637 25.0987 50.7493C24.9136 50.9348 24.8096 51.1865 24.8096 51.4489C24.8096 51.7113 24.9136 51.9629 25.0987 52.1485C25.2838 52.334 25.5349 52.4383 25.7967 52.4383H45.5386C45.8004 52.4383 46.0515 52.334 46.2366 52.1485C46.4217 51.9629 46.5257 51.7113 46.5257 51.4489C46.5257 51.1865 46.4217 50.9348 46.2366 50.7493C46.0515 50.5637 45.8004 50.4595 45.5386 50.4595H25.7967Z" fill="#FFEAD7"/>
<path d="M18.5076 16.8198C18.2458 16.8198 17.9947 16.9241 17.8096 17.1096C17.6245 17.2952 17.5205 17.5468 17.5205 17.8092C17.5205 18.0716 17.6245 18.3233 17.8096 18.5088C17.9947 18.6944 18.2458 18.7986 18.5076 18.7986H38.2495C38.5113 18.7986 38.7624 18.6944 38.9475 18.5088C39.1326 18.3233 39.2366 18.0716 39.2366 17.8092C39.2366 17.5468 39.1326 17.2952 38.9475 17.1096C38.7624 16.9241 38.5113 16.8198 38.2495 16.8198H18.5076Z" fill="#FFEAD7"/>
<path d="M18.5076 21.5386C18.2458 21.5386 17.9947 21.6428 17.8096 21.8284C17.6245 22.0139 17.5205 22.2656 17.5205 22.528C17.5205 22.7904 17.6245 23.042 17.8096 23.2276C17.9947 23.4131 18.2458 23.5174 18.5076 23.5174H38.2495C38.5113 23.5174 38.7624 23.4131 38.9475 23.2276C39.1326 23.042 39.2366 22.7904 39.2366 22.528C39.2366 22.2656 39.1326 22.0139 38.9475 21.8284C38.7624 21.6428 38.5113 21.5386 38.2495 21.5386H18.5076Z" fill="#FFEAD7"/>
<path d="M18.5076 26.2573C18.2458 26.2573 17.9947 26.3616 17.8096 26.5471C17.6245 26.7327 17.5205 26.9843 17.5205 27.2467C17.5205 27.5091 17.6245 27.7608 17.8096 27.9463C17.9947 28.1319 18.2458 28.2361 18.5076 28.2361H38.2495C38.5113 28.2361 38.7624 28.1319 38.9475 27.9463C39.1326 27.7608 39.2366 27.5091 39.2366 27.2467C39.2366 26.9843 39.1326 26.7327 38.9475 26.5471C38.7624 26.3616 38.5113 26.2573 38.2495 26.2573H18.5076Z" fill="#FFEAD7"/>
<path d="M21.3165 4.56653C22.1552 4.56653 22.8351 3.88504 22.8351 3.04437C22.8351 2.20371 22.1552 1.52222 21.3165 1.52222C20.4778 1.52222 19.7979 2.20371 19.7979 3.04437C19.7979 3.88504 20.4778 4.56653 21.3165 4.56653Z" fill="#8B8B8B"/>
</g>
<defs>
<clipPath id="clip0_1_2359">
<rect width="110" height="79" fill="white"/>
</clipPath>
</defs>
</svg>
