<svg width="57" height="41" viewBox="0 0 57 41" fill="none" xmlns="http://www.w3.org/2000/svg">
<g clip-path="url(#clip0_1_2105)">
<path d="M29.111 40.9131C30.8254 40.9131 32.2151 39.4946 32.2151 37.7448C32.2151 35.9949 30.8254 34.5764 29.111 34.5764C27.3966 34.5764 26.0068 35.9949 26.0068 37.7448C26.0068 39.4946 27.3966 40.9131 29.111 40.9131Z" fill="#FFEAD7"/>
<path d="M47.6558 40.735C49.3924 40.2027 51.2386 39.6476 52.6159 38.3821C53.8466 37.2513 54.6775 35.5244 54.1676 33.8285C53.6588 32.1361 52.1348 31.0076 50.5613 30.4463C49.6688 30.1279 48.7352 29.9513 47.8019 29.8126C46.7873 29.6618 45.7682 29.5382 44.7496 29.4193C40.6253 28.9378 36.4854 28.6437 32.3301 28.5369C30.2797 28.4842 28.2297 28.4855 26.179 28.5158C24.3476 28.543 22.4188 28.5423 20.7198 27.7478C19.3986 27.13 18.1995 26.006 17.8314 24.5289C17.4064 22.8239 18.1902 21.0876 19.3146 19.8527C19.9073 19.2018 20.5999 18.654 21.3145 18.1503C22.0897 17.6038 22.8919 17.096 23.7115 16.622C25.3257 15.6889 27.0134 14.8948 28.7569 14.2479C29.617 13.9287 30.4898 13.6533 31.3703 13.3992C32.1137 13.1847 32.8595 12.9699 33.578 12.6776C34.967 12.1125 36.2881 11.1554 36.6413 9.58627C36.976 8.0991 36.4116 6.48467 35.4222 5.37989C34.2776 4.10173 32.5516 3.54143 30.8969 3.45078C29.0393 3.349 27.2244 3.82354 25.4784 4.42579C23.6161 5.06814 21.794 5.80673 19.8924 6.32703C18.0066 6.84246 16.0844 7.20716 14.1432 7.41781C13.1929 7.52109 12.2139 7.63771 11.258 7.55864C10.4568 7.49237 9.65971 7.25188 9.06925 6.67153C8.56297 6.1739 8.26138 5.49001 8.36506 4.76828C8.3839 4.6372 8.579 4.69293 8.56028 4.82322C8.43406 5.70175 9.01915 6.5113 9.74014 6.92599C10.5734 7.40526 11.5874 7.40591 12.5151 7.3511C14.5266 7.2271 16.5246 6.9323 18.4882 6.46977C20.4177 6.01996 22.2782 5.37694 24.1367 4.69005C25.9017 4.03767 27.7062 3.40096 29.5919 3.25965C31.228 3.13705 32.9492 3.38034 34.3746 4.25308C35.6273 5.0201 36.5485 6.29923 36.842 7.76707C37.1288 9.20141 36.7316 10.6451 35.6678 11.646C34.5664 12.6824 33.0562 13.1255 31.6489 13.5335C29.8638 14.0511 28.1171 14.6561 26.4263 15.4416C24.7125 16.2356 23.0689 17.1788 21.5136 18.2607C20.0124 19.3078 18.5309 20.6253 18.0561 22.4933C17.835 23.3634 17.8758 24.2863 18.2458 25.1082C18.5749 25.8389 19.1168 26.4536 19.7481 26.9278C21.2543 28.0591 23.1527 28.2913 24.9721 28.3144C27.0156 28.3404 29.0591 28.27 31.1032 28.3042C35.269 28.374 39.4263 28.6328 43.575 29.0807C44.6146 29.193 45.6529 29.3171 46.6898 29.4531C47.6225 29.5754 48.5583 29.697 49.4753 29.9142C51.1058 30.3005 52.6924 31.0432 53.7059 32.4543C54.1557 33.0659 54.4343 33.7907 54.5121 34.5513C54.583 35.345 54.3927 36.1402 54.0411 36.8463C53.2628 38.4092 51.8051 39.4033 50.2571 40.0564C49.428 40.4062 48.568 40.6712 47.7096 40.9343C47.5846 40.9726 47.5311 40.7732 47.6558 40.735Z" fill="#F2F2F2"/>
<path d="M8.49553 6.44014C9.38999 6.44014 10.1151 5.70005 10.1151 4.78709C10.1151 3.87413 9.38999 3.13403 8.49553 3.13403C7.60108 3.13403 6.87598 3.87413 6.87598 4.78709C6.87598 5.70005 7.60108 6.44014 8.49553 6.44014Z" fill="#F2F2F2"/>
<path d="M19.7309 9.57393C20.6253 9.57393 21.3504 8.83383 21.3504 7.92088C21.3504 7.00792 20.6253 6.26782 19.7309 6.26782C18.8364 6.26782 18.1113 7.00792 18.1113 7.92088C18.1113 8.83383 18.8364 9.57393 19.7309 9.57393Z" fill="#F2F2F2"/>
<path d="M29.2455 3.30611C30.14 3.30611 30.8651 2.56601 30.8651 1.65305C30.8651 0.740098 30.14 0 29.2455 0C28.3511 0 27.626 0.740098 27.626 1.65305C27.626 2.56601 28.3511 3.30611 29.2455 3.30611Z" fill="#F2F2F2"/>
<path d="M35.184 10.3315C36.0785 10.3315 36.8036 9.5914 36.8036 8.67845C36.8036 7.76549 36.0785 7.02539 35.184 7.02539C34.2896 7.02539 33.5645 7.76549 33.5645 8.67845C33.5645 9.5914 34.2896 10.3315 35.184 10.3315Z" fill="#F2F2F2"/>
<path d="M27.1537 18.4592C28.0482 18.4592 28.7733 17.7191 28.7733 16.8061C28.7733 15.8932 28.0482 15.1531 27.1537 15.1531C26.2593 15.1531 25.5342 15.8932 25.5342 16.8061C25.5342 17.7191 26.2593 18.4592 27.1537 18.4592Z" fill="#F2F2F2"/>
<path d="M16.9643 22.3852C17.8587 22.3852 18.5838 21.6451 18.5838 20.7322C18.5838 19.8192 17.8587 19.0791 16.9643 19.0791C16.0698 19.0791 15.3447 19.8192 15.3447 20.7322C15.3447 21.6451 16.0698 22.3852 16.9643 22.3852Z" fill="#F2F2F2"/>
<path d="M27.7612 28.5151C28.6556 28.5151 29.3807 27.775 29.3807 26.862C29.3807 25.9491 28.6556 25.209 27.7612 25.209C26.8667 25.209 26.1416 25.9491 26.1416 26.862C26.1416 27.775 26.8667 28.5151 27.7612 28.5151Z" fill="#F2F2F2"/>
<path d="M39.3686 31.9589C40.263 31.9589 40.9881 31.2188 40.9881 30.3059C40.9881 29.3929 40.263 28.6528 39.3686 28.6528C38.4741 28.6528 37.749 29.3929 37.749 30.3059C37.749 31.2188 38.4741 31.9589 39.3686 31.9589Z" fill="#F2F2F2"/>
<path d="M52.9321 31.2014C53.8265 31.2014 54.5516 30.4613 54.5516 29.5483C54.5516 28.6354 53.8265 27.8953 52.9321 27.8953C52.0376 27.8953 51.3125 28.6354 51.3125 29.5483C51.3125 30.4613 52.0376 31.2014 52.9321 31.2014Z" fill="#F2F2F2"/>
<path d="M28.7782 4.68383C23.9268 4.71881 19.9546 8.74276 19.8857 13.6941C19.885 13.7398 19.8847 14.0613 19.8848 14.4817C19.8848 15.0981 20.1247 15.6892 20.5517 16.1251C20.9788 16.561 21.5579 16.8059 22.1619 16.806C22.4612 16.8059 22.7577 16.7457 23.0342 16.6286C23.3107 16.5116 23.562 16.3401 23.7736 16.1239C23.9851 15.9077 24.1529 15.6511 24.2673 15.3687C24.3816 15.0863 24.4404 14.7837 24.4401 14.4781C24.4399 14.1921 24.4397 13.9942 24.4397 13.982C24.4396 13.2168 24.6346 12.4647 25.0056 11.7998C25.3766 11.1348 25.9108 10.5798 26.5556 10.1895C27.2005 9.7992 27.9338 9.58693 28.6834 9.57361C29.433 9.56028 30.1731 9.74636 30.8309 10.1135C31.4886 10.4807 32.0414 11.0163 32.4349 11.6677C32.8283 12.3191 33.0489 13.0638 33.0748 13.8285C33.1008 14.5933 32.9312 15.3518 32.5829 16.0294C32.2345 16.707 31.7194 17.2804 31.088 17.6931L31.0888 17.6941C31.0888 17.6941 27.8478 19.8237 26.8597 22.7452L26.8605 22.7454C26.6868 23.3439 26.5988 23.9649 26.5992 24.5891C26.5992 24.8457 26.6139 27.0908 26.6425 28.9131C26.6525 29.5418 26.9043 30.1414 27.3435 30.5823C27.7827 31.0233 28.3741 31.2704 28.9902 31.2702C29.2998 31.2702 29.6063 31.2077 29.8921 31.0863C30.1779 30.965 30.4374 30.7871 30.6556 30.563C30.8738 30.3389 31.0465 30.0729 31.1636 29.7805C31.2807 29.488 31.3401 29.1748 31.3382 28.8588C31.3282 27.19 31.3229 25.2468 31.3229 25.1057C31.3229 23.3118 33.0184 21.5245 34.4111 20.3589C36.0148 19.0167 37.1689 17.1876 37.6324 15.1243C37.735 14.6995 37.7916 14.2645 37.8011 13.8271C37.8011 12.6208 37.5672 11.4264 37.113 10.3128C36.6587 9.19912 35.9931 8.18823 35.1544 7.33834C34.3157 6.48845 33.3205 5.81635 32.2262 5.36076C31.1318 4.90518 29.96 4.67512 28.7782 4.68383Z" fill="#FFEAD7"/>
<path d="M56.9194 41H0.0801168C0.0588472 40.9999 0.0384703 40.9912 0.0234521 40.9759C0.00843401 40.9605 0 40.9397 0 40.918C0 40.8962 0.00843401 40.8754 0.0234521 40.86C0.0384703 40.8447 0.0588472 40.836 0.0801168 40.8359H56.9194C56.9407 40.8359 56.9612 40.8446 56.9762 40.86C56.9913 40.8753 56.9998 40.8962 56.9998 40.918C56.9998 40.9397 56.9913 40.9606 56.9762 40.9759C56.9612 40.9913 56.9407 41 56.9194 41Z" fill="#3F3D56"/>
<path d="M42.4082 18.8033C43.5263 18.8033 44.4327 17.8782 44.4327 16.737C44.4327 15.5958 43.5263 14.6707 42.4082 14.6707C41.2902 14.6707 40.3838 15.5958 40.3838 16.737C40.3838 17.8782 41.2902 18.8033 42.4082 18.8033Z" fill="#2F2E41"/>
<path d="M38.6681 40.0954H37.8409L37.4473 36.8384H38.6683L38.6681 40.0954Z" fill="#A0616A"/>
<path d="M37.2497 39.8542H38.8452V40.8796H36.2451C36.2451 40.745 36.2711 40.6116 36.3216 40.4872C36.3721 40.3628 36.4461 40.2498 36.5394 40.1546C36.6326 40.0594 36.7434 39.9838 36.8653 39.9323C36.9871 39.8808 37.1178 39.8542 37.2497 39.8542Z" fill="#2F2E41"/>
<path d="M45.0783 40.0954H44.251L43.8574 36.8384H45.0785L45.0783 40.0954Z" fill="#A0616A"/>
<path d="M43.6599 39.8542H45.2554V40.8796H42.6553C42.6553 40.745 42.6813 40.6116 42.7317 40.4872C42.7822 40.3628 42.8562 40.2498 42.9495 40.1546C43.0428 40.0594 43.1535 39.9838 43.2754 39.9323C43.3973 39.8808 43.5279 39.8542 43.6599 39.8542Z" fill="#2F2E41"/>
<path d="M42.1008 18.8153C43.0161 18.8153 43.7582 18.0579 43.7582 17.1236C43.7582 16.1893 43.0161 15.4319 42.1008 15.4319C41.1854 15.4319 40.4434 16.1893 40.4434 17.1236C40.4434 18.0579 41.1854 18.8153 42.1008 18.8153Z" fill="#A0616A"/>
<path d="M43.089 24.2727L43.8306 22.5335C44.0107 22.1255 44.0623 21.6706 43.9783 21.2314C43.8943 20.7921 43.6789 20.3904 43.3616 20.0815C43.2965 20.0158 43.2273 19.9543 43.1544 19.8976C42.7885 19.6054 42.3376 19.4462 41.873 19.4451C41.5606 19.4463 41.2522 19.5163 40.9687 19.6503C40.9444 19.6613 40.9208 19.6731 40.8965 19.6848C40.8499 19.7075 40.8041 19.7323 40.7595 19.7578C40.469 19.928 40.2218 20.1656 40.0377 20.4513C39.8537 20.737 39.738 21.0628 39.7001 21.4026L39.3728 24.2017C39.2905 24.4215 36.3537 32.3561 37.3807 38.4139C37.3917 38.4786 37.4226 38.538 37.469 38.5835C37.5153 38.629 37.5747 38.6581 37.6385 38.6667L38.6798 38.8113C38.7558 38.8219 38.8329 38.8027 38.8957 38.7576C38.9584 38.7125 39.002 38.6448 39.0178 38.5682L40.7649 30.068C40.7758 30.0152 40.8037 29.9676 40.8442 29.9329C40.8847 29.8982 40.9354 29.8784 40.9883 29.8765C41.0411 29.8747 41.093 29.891 41.1357 29.9229C41.1784 29.9547 41.2094 30.0002 41.2238 30.0522L43.6923 38.9911C43.7099 39.056 43.7478 39.1133 43.8004 39.1541C43.8529 39.1949 43.9171 39.217 43.9831 39.217C44.0028 39.2169 44.0225 39.215 44.0418 39.2115L45.3138 38.9615C45.3878 38.9473 45.4539 38.9055 45.4992 38.8443C45.5446 38.783 45.5658 38.7066 45.5588 38.6301C45.3719 36.5025 44.3786 25.8451 43.089 24.2727Z" fill="#2F2E41"/>
<path d="M35.6599 18.5315C35.6483 18.6321 35.6586 18.734 35.6899 18.8301C35.7211 18.9262 35.7726 19.0141 35.8408 19.0877C35.909 19.1612 35.9921 19.2187 36.0844 19.2559C36.1766 19.2931 36.2757 19.3092 36.3748 19.3031L37.3012 21.5756L38.002 20.5152L37.0148 18.5199C36.9937 18.3508 36.9126 18.1954 36.7868 18.0833C36.661 17.9711 36.4993 17.91 36.3323 17.9114C36.1653 17.9128 36.0046 17.9767 35.8806 18.091C35.7567 18.2053 35.6781 18.362 35.6599 18.5315Z" fill="#A0616A"/>
<path d="M42.0088 26.561C42.1073 26.549 42.202 26.515 42.2863 26.4616C42.3706 26.4082 42.4424 26.3366 42.4966 26.2518C42.5508 26.167 42.5861 26.0711 42.6001 25.9708C42.6141 25.8706 42.6063 25.7684 42.5775 25.6715L44.5267 24.2225L43.3532 23.7739L41.682 25.2188C41.5258 25.2791 41.3967 25.3958 41.3192 25.5468C41.2416 25.6978 41.2211 25.8726 41.2613 26.038C41.3016 26.2035 41.4 26.3481 41.5377 26.4445C41.6755 26.5408 41.8431 26.5823 42.0088 26.561Z" fill="#A0616A"/>
<path d="M38.8312 23.0906C38.7565 23.0905 38.6819 23.083 38.6086 23.0682C38.4313 23.0337 38.265 22.9553 38.1244 22.8398C37.9838 22.7243 37.8732 22.5753 37.8024 22.4058L36.5044 20.7904C36.477 20.7563 36.457 20.7166 36.4458 20.6739C36.4347 20.6312 36.4326 20.5866 36.4397 20.543C36.4468 20.4995 36.4629 20.4579 36.487 20.4212C36.5111 20.3846 36.5426 20.3536 36.5794 20.3303L37.5028 19.7469C37.5369 19.7253 37.5749 19.7109 37.6145 19.7044C37.654 19.6979 37.6945 19.6994 37.7335 19.709C37.7725 19.7185 37.8092 19.7359 37.8416 19.76C37.874 19.7841 37.9014 19.8145 37.9223 19.8495L38.8371 21.3878L40.589 20.0663C40.7285 19.9916 40.8896 19.9707 41.043 20.0073C41.1963 20.0439 41.3317 20.1356 41.4243 20.2657C41.5169 20.3957 41.5605 20.5554 41.5473 20.7156C41.5341 20.8758 41.4648 21.0258 41.3522 21.1381L39.6036 22.7662C39.3981 22.9741 39.1205 23.0907 38.8312 23.0906Z" fill="#2F2E41"/>
<path d="M43.5651 25.5201C43.5627 25.5201 43.5603 25.5201 43.558 25.52C43.5154 25.5189 43.4735 25.5088 43.435 25.4901C43.3965 25.4715 43.3623 25.4448 43.3345 25.4118L42.5135 24.4342C42.4856 24.401 42.4649 24.362 42.4527 24.3199C42.4406 24.2778 42.4374 24.2336 42.4433 24.1902C42.4491 24.1467 42.464 24.1051 42.4868 24.0679C42.5096 24.0307 42.5399 23.999 42.5757 23.9746L44.113 22.9286L42.7203 21.2195C42.6393 21.0817 42.6095 20.9187 42.6365 20.7603C42.6636 20.6019 42.7455 20.4588 42.8674 20.357C42.9893 20.2551 43.143 20.2015 43.3004 20.2058C43.4579 20.2101 43.6085 20.2721 43.7249 20.3804L45.4176 22.0688C45.5508 22.193 45.6525 22.3484 45.7139 22.5215C45.7754 22.6947 45.7947 22.8805 45.7703 23.063C45.746 23.2455 45.6785 23.4192 45.5739 23.5692C45.4693 23.7193 45.3305 23.8411 45.1695 23.9244L43.7861 25.4227C43.7577 25.4535 43.7234 25.4779 43.6854 25.4947C43.6474 25.5114 43.6065 25.52 43.5651 25.5201Z" fill="#2F2E41"/>
<path d="M41.6795 21.9177C41.6663 21.9177 41.6532 21.9169 41.6401 21.9152C41.5829 21.9081 41.529 21.8844 41.4846 21.8469C41.4402 21.8095 41.4073 21.7598 41.3897 21.7038L40.7728 19.7732C40.7573 19.7244 40.7597 19.6715 40.7795 19.6244C40.7992 19.5772 40.8351 19.539 40.8803 19.5167L40.9004 19.507C40.9185 19.4982 40.9365 19.4895 40.9548 19.4812C41.2425 19.345 41.5557 19.274 41.8728 19.2729C42.2845 19.2737 42.687 19.3972 43.0309 19.6281C43.077 19.6595 43.1092 19.708 43.1206 19.7633C43.1319 19.8187 43.1216 19.8763 43.0917 19.9239L41.9344 21.7745C41.9072 21.8184 41.8696 21.8546 41.8251 21.8797C41.7805 21.9047 41.7304 21.9178 41.6795 21.9177Z" fill="#E6E6E6"/>
<path d="M44.0052 15.8145C44.3711 15.8145 44.6677 15.5117 44.6677 15.1383C44.6677 14.7649 44.3711 14.4622 44.0052 14.4622C43.6394 14.4622 43.3428 14.7649 43.3428 15.1383C43.3428 15.5117 43.6394 15.8145 44.0052 15.8145Z" fill="#2F2E41"/>
<path d="M41.734 14.395C41.2687 14.395 40.8224 14.5837 40.4934 14.9195C40.1643 15.2554 39.9795 15.7109 39.9795 16.1858V16.9435H40.8925L41.3291 16.1858L41.4601 16.9435H44.2308L43.4885 16.1858C43.4885 15.7109 43.3037 15.2554 42.9746 14.9195C42.6456 14.5837 42.1993 14.395 41.734 14.395Z" fill="#2F2E41"/>
<path d="M44.3457 14.6751C44.419 14.4413 44.5706 14.2413 44.774 14.1104C44.9774 13.9794 45.2196 13.9258 45.4579 13.9591C45.88 14.0311 46.2138 14.3775 46.4127 14.7643C46.6116 15.1512 46.7034 15.5841 46.8371 15.9991C46.9708 16.4142 47.1604 16.8314 47.4979 17.1001C47.8355 17.3687 48.3534 17.4416 48.6849 17.1652C48.6471 17.4533 48.5214 17.7218 48.3258 17.933C48.1302 18.1441 47.8745 18.2872 47.5949 18.3418C47.3153 18.3965 47.0259 18.3601 46.7676 18.2377C46.5094 18.1153 46.2954 17.9132 46.1559 17.6599C45.981 17.3422 45.9358 16.9699 45.884 16.6094C45.8321 16.2489 45.7647 15.8759 45.5559 15.5804C45.347 15.2848 44.9561 15.0918 44.6244 15.2264L44.3457 14.6751Z" fill="#2F2E41"/>
<path d="M22.8054 15.7067C22.2015 15.7067 21.6223 15.4618 21.1953 15.0259C20.7683 14.59 20.5284 13.9988 20.5283 13.3824C20.5283 12.962 20.5286 12.6406 20.5292 12.5949C20.5484 11.1549 20.9037 9.7403 21.5657 8.46851C20.4781 9.98814 19.8801 11.8152 19.8544 13.6969C19.8538 13.7426 19.8535 14.064 19.8535 14.4845C19.8536 15.1009 20.0935 15.692 20.5205 16.1279C20.9475 16.5638 21.5267 16.8087 22.1306 16.8088C22.6269 16.8086 23.1095 16.6431 23.5052 16.3374C23.9009 16.0317 24.188 15.6025 24.323 15.1151C23.906 15.4967 23.3655 15.7074 22.8054 15.7067Z" fill="#3F3D56"/>
<path d="M28.9327 9.58147C29.6309 9.6155 30.3106 9.82198 30.9134 10.1832C31.5161 10.5444 32.024 11.0495 32.3934 11.6552C32.7628 12.2608 32.9826 12.9489 33.0341 13.6604C33.0855 14.3719 32.967 15.0855 32.6887 15.74C33.0912 15.2575 33.3871 14.6921 33.5561 14.0823C33.7251 13.4725 33.7633 12.8326 33.6681 12.2064C33.5729 11.5802 33.3465 10.9823 33.0044 10.4534C32.6623 9.92458 32.2125 9.47726 31.6856 9.14195C31.1588 8.80663 30.5673 8.59121 29.9515 8.51037C29.3356 8.42954 28.71 8.48518 28.1172 8.67351C27.5243 8.86185 26.9782 9.17844 26.5161 9.60171C26.0541 10.025 25.6868 10.545 25.4395 11.1262C25.867 10.6129 26.4043 10.2067 27.0099 9.93884C27.6156 9.67101 28.2735 9.54874 28.9327 9.58147Z" fill="#3F3D56"/>
<path d="M29.6332 30.1708C29.0172 30.1709 28.4257 29.9239 27.9865 29.4829C27.5473 29.0419 27.2956 28.4424 27.2856 27.8137C27.257 25.9914 27.2422 23.7463 27.2422 23.4897C27.2418 22.8655 27.3298 22.2445 27.5036 21.646L27.5028 21.6458C27.6054 21.3454 27.7293 21.053 27.8735 20.771C27.4307 21.3733 27.0783 22.0395 26.828 22.7478L26.8288 22.748C26.655 23.3465 26.567 23.9675 26.5674 24.5917C26.5674 24.8483 26.5822 27.0935 26.6107 28.9157C26.6207 29.5444 26.8725 30.144 27.3117 30.5849C27.7509 31.0259 28.3423 31.273 28.9584 31.2728C29.4664 31.2727 29.9606 31.1046 30.367 30.7935C30.7734 30.4824 31.0701 30.0453 31.2124 29.5476C30.7808 29.9493 30.2174 30.1716 29.6332 30.1708Z" fill="#3F3D56"/>
<path d="M8.53926 40.1268L9.36652 40.1267L9.76014 36.8696L8.53906 36.8697L8.53926 40.1268Z" fill="#FFB8B8"/>
<path d="M10.9619 40.9109L8.3618 40.911L8.36176 39.8856L9.95728 39.8856C10.2237 39.8856 10.4792 39.9936 10.6676 40.1859C10.856 40.3781 10.9619 40.6389 10.9619 40.9109Z" fill="#2F2E41"/>
<path d="M5.56954 40.1268L6.39679 40.1267L6.79041 36.8696L5.56934 36.8697L5.56954 40.1268Z" fill="#FFB8B8"/>
<path d="M7.99316 40.9109L5.39305 40.911L5.39301 39.8856L6.98853 39.8856C7.25496 39.8856 7.51049 39.9936 7.69889 40.1859C7.8873 40.3781 7.99315 40.6389 7.99316 40.9109Z" fill="#2F2E41"/>
<path d="M6.29246 39.1252L5.48436 39.0818C5.4427 39.0795 5.40188 39.0689 5.36427 39.0504C5.32666 39.032 5.29302 39.0061 5.26529 38.9743C5.23755 38.9424 5.21628 38.9053 5.20271 38.8651C5.18913 38.8248 5.18352 38.7822 5.1862 38.7397L6.15204 27.825L10.5998 29.05L11.0283 28.9307L9.68827 38.5931C9.67685 38.6658 9.64149 38.7323 9.58802 38.7817C9.53455 38.8311 9.46617 38.8604 9.39417 38.8648L8.52306 38.9062C8.4795 38.9087 8.43592 38.9019 8.39506 38.8863C8.3542 38.8707 8.31695 38.8466 8.28568 38.8156C8.2544 38.7845 8.22978 38.7472 8.21336 38.7059C8.19693 38.6647 8.18908 38.6204 8.19028 38.5759L8.34811 32.7767C8.34885 32.7499 8.33973 32.7237 8.32253 32.7035C8.30533 32.6832 8.28131 32.6702 8.25521 32.6671C8.2291 32.664 8.2028 32.6709 8.18149 32.6866C8.16017 32.7023 8.14539 32.7256 8.14006 32.7519L6.61788 38.869C6.60351 38.9416 6.56493 39.0069 6.5087 39.0537C6.45248 39.1005 6.38209 39.1259 6.30955 39.1256C6.30389 39.1256 6.29819 39.1255 6.29246 39.1252Z" fill="#2F2E41"/>
<path d="M8.68769 18.8944C9.60306 18.8944 10.3451 18.137 10.3451 17.2027C10.3451 16.2684 9.60306 15.511 8.68769 15.511C7.77232 15.511 7.03027 16.2684 7.03027 17.2027C7.03027 18.137 7.77232 18.8944 8.68769 18.8944Z" fill="#FFB8B8"/>
<path d="M5.92869 22.1729L6.11092 26.1862L6.1768 27.6463C6.17943 27.7099 6.20057 27.7712 6.23753 27.8224C6.27449 27.8737 6.32558 27.9125 6.38426 27.9339L10.6583 29.5142C10.6928 29.5273 10.7294 29.5338 10.7662 29.5335C10.8083 29.5337 10.85 29.5253 10.8888 29.5087C10.9277 29.492 10.9628 29.4676 10.9922 29.4368C11.0216 29.4061 11.0446 29.3695 11.0598 29.3295C11.0751 29.2894 11.0822 29.2467 11.0809 29.2037L10.9057 21.9876C10.8942 21.3956 10.6807 20.8262 10.302 20.3776C9.92324 19.929 9.40305 19.6294 8.83107 19.5303C8.78973 19.5239 8.74767 19.5174 8.70561 19.5117C8.35094 19.4668 7.99092 19.5017 7.6509 19.614C7.31088 19.7264 6.9991 19.9134 6.73751 20.162C6.46664 20.4163 6.2538 20.7282 6.11404 21.0757C5.97427 21.4231 5.911 21.7977 5.92869 22.1729Z" fill="#CCCCCC"/>
<path d="M12.6994 28.7133C12.5983 28.6813 12.5059 28.6256 12.4297 28.5507C12.3534 28.4758 12.2954 28.3837 12.2602 28.2818C12.225 28.1799 12.2136 28.071 12.2269 27.9639C12.2403 27.8567 12.278 27.7542 12.3371 27.6646L10.8877 25.6974L12.1384 25.6184L13.323 27.4985C13.4498 27.5986 13.5381 27.7411 13.5723 27.9009C13.6065 28.0608 13.5844 28.2278 13.51 28.3727C13.4356 28.5177 13.3136 28.6312 13.1654 28.6935C13.0171 28.7558 12.8522 28.7628 12.6994 28.7133Z" fill="#FFB8B8"/>
<path d="M11.6806 27.3086C11.6422 27.2927 11.6073 27.2692 11.5779 27.2394C11.5484 27.2096 11.5251 27.1742 11.5091 27.1351L9.32556 21.8251C9.28271 21.7211 9.26036 21.6095 9.25978 21.4968C9.25919 21.384 9.28039 21.2722 9.32216 21.1678C9.36393 21.0633 9.42545 20.9683 9.50321 20.8882C9.58096 20.8081 9.67343 20.7443 9.77532 20.7007C9.87721 20.657 9.98653 20.6343 10.097 20.6338C10.2075 20.6333 10.3171 20.655 10.4193 20.6977C10.5216 20.7404 10.6146 20.8033 10.6931 20.8827C10.7715 20.9622 10.8339 21.0566 10.8766 21.1606L13.0602 26.4707C13.0924 26.5495 13.0928 26.6381 13.0612 26.7171C13.0295 26.7961 12.9685 26.859 12.8914 26.8921L11.922 27.3074C11.8839 27.3239 11.8429 27.3325 11.8014 27.3327C11.76 27.3329 11.7189 27.3247 11.6806 27.3086Z" fill="#CCCCCC"/>
<path d="M8.15441 27.1212L10.2517 23.0224C10.2921 22.9436 10.3616 22.8843 10.4447 22.8577C10.5279 22.8311 10.6181 22.8392 10.6954 22.8803L13.7396 24.503C13.8168 24.5443 13.8748 24.6152 13.9009 24.7001C13.927 24.785 13.9191 24.877 13.8788 24.9559L11.7815 29.0547C11.7411 29.1335 11.6717 29.1928 11.5885 29.2194C11.5053 29.2461 11.4152 29.2379 11.3379 29.1968L8.29366 27.5741C8.21643 27.5328 8.1584 27.4619 8.13229 27.377C8.10619 27.2921 8.11414 27.2001 8.15441 27.1212Z" fill="#3F3D56"/>
<path d="M9.561 25.2486C9.52372 25.1475 9.46379 25.0567 9.38601 24.9834C9.30824 24.9102 9.21475 24.8565 9.11303 24.8266C9.01131 24.7968 8.90416 24.7916 8.80013 24.8115C8.69611 24.8315 8.59808 24.876 8.51389 24.9414L6.50439 23.5808L6.50098 24.8598L8.40975 25.9558C8.51512 26.0791 8.65965 26.1606 8.81801 26.186C8.97637 26.2114 9.13843 26.1791 9.27578 26.0947C9.41313 26.0104 9.51698 25.8793 9.56914 25.7246C9.62129 25.5699 9.61841 25.4014 9.561 25.2486Z" fill="#FFB8B8"/>
<path d="M7.02068 25.5363L5.3784 24.2085C5.20074 24.1476 5.0402 24.0436 4.91058 23.9055C4.78096 23.7673 4.68612 23.5991 4.6342 23.4153C4.58228 23.2315 4.57483 23.0376 4.6125 22.8502C4.65017 22.6628 4.73183 22.4876 4.85046 22.3395L6.34161 20.3448C6.44523 20.2156 6.59097 20.1287 6.75217 20.1001C6.91337 20.0715 7.07927 20.1031 7.21955 20.189C7.35983 20.275 7.46512 20.4096 7.51616 20.5683C7.5672 20.727 7.5606 20.8991 7.49754 21.0532L6.31771 23.0231L8.05158 23.8625C8.0919 23.882 8.1277 23.91 8.15662 23.9447C8.18554 23.9794 8.20692 24.02 8.21934 24.0637C8.23177 24.1075 8.23496 24.1534 8.2287 24.1985C8.22244 24.2436 8.20688 24.2868 8.18304 24.3253L7.48314 25.4559C7.45948 25.494 7.42823 25.5267 7.39142 25.5517C7.35461 25.5768 7.31305 25.5937 7.26945 25.6013C7.26771 25.6016 7.26597 25.6019 7.26423 25.6021C7.22138 25.6087 7.17766 25.6063 7.13577 25.595C7.09388 25.5836 7.05471 25.5637 7.02068 25.5363Z" fill="#CCCCCC"/>
<path d="M7.43497 18.3355C7.42786 18.3142 7.4256 18.2916 7.42838 18.2694C7.43115 18.2471 7.43888 18.2258 7.45097 18.2071C7.46306 18.1883 7.47919 18.1726 7.49814 18.1612C7.51708 18.1499 7.53832 18.143 7.56024 18.1413C7.60513 18.1438 7.64906 18.1556 7.68938 18.1759C7.72969 18.1962 7.76556 18.2246 7.79481 18.2594C7.85479 18.33 7.92463 18.3912 8.00206 18.4411C8.08224 18.4823 8.19098 18.4764 8.23668 18.3978C8.2796 18.3239 8.25019 18.2251 8.22421 18.1393C8.15809 17.921 8.12109 17.6947 8.11422 17.4663C8.10674 17.2115 8.14197 16.9455 8.28021 16.7467C8.45862 16.4902 8.77764 16.3928 9.07955 16.3998C9.38147 16.4069 9.67849 16.502 9.97754 16.5621C10.0808 16.5829 10.2021 16.5935 10.2712 16.5118C10.3446 16.425 10.3176 16.2844 10.2864 16.1672C10.2054 15.8629 10.1194 15.5484 9.93111 15.3026C9.72752 15.0473 9.4367 14.8802 9.11722 14.8349C8.81051 14.7962 8.49916 14.8322 8.20877 14.9402C7.73564 15.0924 7.31933 15.3884 7.0155 15.7887C6.7023 16.2143 6.56696 16.7492 6.63908 17.2764C6.70954 17.7356 6.94793 18.1505 7.30619 18.4373L7.43497 18.3355Z" fill="#2F2E41"/>
<path d="M28.4275 40.1403C27.9865 39.9442 27.5962 39.6463 27.2874 39.2699C26.9786 38.8936 26.7597 38.4491 26.648 37.9716C26.5363 37.4941 26.5348 36.9967 26.6437 36.5185C26.7526 36.0403 26.9689 35.5945 27.2756 35.2163C26.9201 35.4812 26.6238 35.8203 26.4065 36.211C26.1892 36.6018 26.0558 37.0352 26.0152 37.4825C25.9746 37.9299 26.0276 38.381 26.1708 38.8058C26.314 39.2306 26.5441 39.6195 26.8459 39.9466C27.1476 40.2738 27.514 40.5317 27.9208 40.7032C28.3277 40.8747 28.7656 40.956 29.2055 40.9416C29.6455 40.9271 30.0774 40.8174 30.4726 40.6196C30.8678 40.4217 31.2173 40.1404 31.4978 39.7942C31.0603 40.1206 30.5466 40.3243 30.0079 40.385C29.4692 40.4457 28.9243 40.3614 28.4275 40.1403Z" fill="#3F3D56"/>
</g>
<defs>
<clipPath id="clip0_1_2105">
<rect width="57" height="41" fill="white"/>
</clipPath>
</defs>
</svg>
