<svg width="51" height="39" viewBox="0 0 51 39" fill="none" xmlns="http://www.w3.org/2000/svg">
<g clip-path="url(#clip0_1_2198)">
<path d="M20.4075 8.0877H20.2215V2.96493C20.2215 2.57557 20.1452 2.19002 19.9969 1.8303C19.8487 1.47058 19.6314 1.14373 19.3575 0.868408C19.0836 0.593089 18.7584 0.374694 18.4005 0.225693C18.0426 0.0766908 17.659 3.29896e-07 17.2716 0H6.47333C5.69097 -1.49905e-06 4.94066 0.312372 4.38744 0.868401C3.83423 1.42443 3.52344 2.17857 3.52344 2.96492V31.0689C3.52344 31.4582 3.59974 31.8438 3.74798 32.2035C3.89623 32.5632 4.11352 32.8901 4.38744 33.1654C4.66136 33.4407 4.98655 33.6591 5.34445 33.8081C5.70235 33.9571 6.08594 34.0338 6.47333 34.0338H17.2716C18.054 34.0338 18.8043 33.7214 19.3575 33.1654C19.9107 32.6094 20.2215 31.8552 20.2215 31.0689V11.7342H20.4075V8.0877Z" fill="#3F3D56"/>
<path d="M17.3911 0.771484H15.9816C16.0464 0.931214 16.0711 1.10451 16.0536 1.27612C16.0361 1.44772 15.9769 1.61237 15.8812 1.75554C15.7854 1.89872 15.6561 2.01604 15.5047 2.09716C15.3532 2.17828 15.1842 2.22071 15.0126 2.22073H8.82637C8.65474 2.22071 8.48574 2.17828 8.33427 2.09716C8.1828 2.01604 8.05351 1.89872 7.95777 1.75554C7.86204 1.61237 7.8028 1.44773 7.78529 1.27612C7.76778 1.10452 7.79252 0.931214 7.85734 0.771484H6.54084C6.25154 0.771484 5.96508 0.828756 5.69781 0.940028C5.43053 1.0513 5.18768 1.21439 4.98312 1.42C4.77856 1.6256 4.61629 1.86969 4.50558 2.13833C4.39487 2.40696 4.33789 2.69489 4.33789 2.98565V31.0484C4.33789 31.3391 4.39487 31.6271 4.50558 31.8957C4.61629 32.1643 4.77856 32.4084 4.98312 32.614C5.18768 32.8196 5.43053 32.9827 5.69781 33.094C5.96508 33.2053 6.25154 33.2625 6.54083 33.2625H17.3911C17.6804 33.2625 17.9669 33.2053 18.2341 33.094C18.5014 32.9827 18.7443 32.8196 18.9488 32.614C19.1534 32.4084 19.3157 32.1643 19.4264 31.8957C19.5371 31.6271 19.5941 31.3391 19.5941 31.0484V2.98565C19.5941 2.69489 19.5371 2.40696 19.4264 2.13833C19.3157 1.86969 19.1534 1.6256 18.9488 1.42C18.7443 1.21439 18.5014 1.0513 18.2341 0.940028C17.9669 0.828756 17.6804 0.771484 17.3911 0.771484Z" fill="white"/>
<path d="M23.8687 34.0387H0.0624835C0.0459119 34.0387 0.0300189 34.0321 0.018301 34.0203C0.00658302 34.0085 0 33.9925 0 33.9759C0 33.9592 0.00658302 33.9433 0.018301 33.9315C0.0300189 33.9197 0.0459119 33.9131 0.0624835 33.9131H23.8687C23.8853 33.9131 23.9012 33.9197 23.9129 33.9315C23.9246 33.9433 23.9312 33.9592 23.9312 33.9759C23.9312 33.9925 23.9246 34.0085 23.9129 34.0203C23.9012 34.0321 23.8853 34.0387 23.8687 34.0387Z" fill="#CBCBCB"/>
<path d="M11.9659 21.7093C14.8801 21.7093 17.2424 19.3349 17.2424 16.4059C17.2424 13.4769 14.8801 11.1025 11.9659 11.1025C9.05182 11.1025 6.68945 13.4769 6.68945 16.4059C6.68945 19.3349 9.05182 21.7093 11.9659 21.7093Z" fill="#FFEAD7"/>
<path d="M11.4423 18.429C11.3236 18.4292 11.2081 18.3906 11.1131 18.319L11.1072 18.3146L9.86715 17.3611C9.80972 17.3169 9.76152 17.2617 9.72531 17.1987C9.6891 17.1357 9.66559 17.0662 9.65611 16.9941C9.64664 16.922 9.65138 16.8487 9.67008 16.7785C9.68878 16.7082 9.72107 16.6423 9.7651 16.5846C9.80913 16.5269 9.86404 16.4784 9.9267 16.442C9.98935 16.4056 10.0585 16.382 10.1303 16.3725C10.202 16.3629 10.2749 16.3677 10.3448 16.3865C10.4147 16.4053 10.4803 16.4378 10.5377 16.482L11.3409 17.1011L13.2389 14.6123C13.2829 14.5546 13.3378 14.5062 13.4005 14.4698C13.4631 14.4334 13.5322 14.4098 13.604 14.4003C13.6757 14.3908 13.7485 14.3955 13.8184 14.4143C13.8883 14.4331 13.9538 14.4655 14.0112 14.5098L14.0114 14.5099L13.9996 14.5263L14.0117 14.5099C14.1275 14.5994 14.2033 14.7314 14.2224 14.8769C14.2415 15.0225 14.2024 15.1697 14.1136 15.2863L11.8811 18.2123C11.8295 18.2798 11.7631 18.3343 11.6871 18.3718C11.611 18.4092 11.5275 18.4286 11.4428 18.4283L11.4423 18.429Z" fill="white"/>
<path d="M43.3786 34.5598C43.4428 34.4555 43.5184 34.3587 43.6039 34.2712C43.6392 34.2345 43.6764 34.1998 43.7148 34.1661C43.9481 33.9574 44.2325 33.8149 44.5387 33.7533C44.845 33.6917 45.1621 33.7132 45.4573 33.8155C45.7526 33.9179 46.0154 34.0975 46.2187 34.3358C46.422 34.5741 46.5585 34.8625 46.6141 35.1714C46.8718 34.2135 46.201 33.27 45.5266 32.5453C44.8518 31.8208 44.0805 31.026 44.0844 30.0333C44.0863 29.4809 44.3551 28.9881 44.761 28.6228C44.7735 28.6117 44.7861 28.6006 44.7988 28.59C45.2895 28.1673 45.9207 27.9462 46.5664 27.9709C47.766 28.0354 48.8135 28.8458 49.5409 29.807C50.7118 31.3537 51.2248 33.5247 50.4051 35.2853C49.6841 36.8338 48.1464 37.7533 46.5771 38.4925C46.3579 38.5958 46.1392 38.6959 45.921 38.7929C45.9195 38.7933 45.9179 38.7944 45.9165 38.7947C45.906 38.7994 45.8955 38.804 45.8856 38.8088C45.8406 38.8288 45.7955 38.8488 45.7509 38.8685L45.7715 38.8821L45.8361 38.9241C45.8137 38.9105 45.7916 38.8972 45.7692 38.8836C45.7625 38.8795 45.7555 38.8756 45.7489 38.8715C44.9781 38.4066 44.1966 37.9149 43.6641 37.1892C43.1118 36.4357 42.8898 35.3564 43.3786 34.5598Z" fill="#F1F1F1"/>
<path d="M48.5217 32.8101C48.6924 33.2004 48.8056 33.6135 48.8576 34.0366C48.8986 34.4139 48.8832 34.7952 48.812 35.1678C48.6589 35.9337 48.3251 36.6514 47.8386 37.2606C47.4716 37.723 47.0479 38.137 46.5776 38.4927C46.3585 38.596 46.1398 38.6961 45.9215 38.7931C45.9201 38.7935 45.9185 38.7945 45.917 38.7949C45.9065 38.7996 45.896 38.8042 45.8862 38.809C45.8411 38.829 45.7961 38.849 45.7514 38.8687L45.7721 38.8823L45.8366 38.9243C45.8142 38.9106 45.7921 38.8974 45.7697 38.8838C45.7631 38.8797 45.756 38.8758 45.7494 38.8717C45.919 38.2753 45.944 37.6468 45.8221 37.0387C45.7003 36.4307 45.4352 35.8608 45.0491 35.377C44.661 34.8992 44.166 34.5204 43.6045 34.2714C43.6398 34.2347 43.677 34.2 43.7153 34.1663C43.9316 34.2661 44.1387 34.385 44.3341 34.5214C45.0332 35.007 45.5581 35.706 45.8311 36.5148C46.0749 37.2485 46.1054 38.0369 45.9189 38.7875C45.9576 38.762 45.9964 38.7359 46.0342 38.71C46.7523 38.2233 47.414 37.6388 47.9125 36.922C48.3424 36.3162 48.6176 35.6134 48.7137 34.8756C48.8092 34.0696 48.6085 33.277 48.2505 32.5579C47.8552 31.7885 47.357 31.077 46.7699 30.4433C46.1802 29.7921 45.5134 29.2159 44.7844 28.7274C44.768 28.7163 44.7565 28.6992 44.7522 28.6798C44.748 28.6603 44.7513 28.64 44.7616 28.623C44.7694 28.6074 44.783 28.5957 44.7994 28.5902C44.8077 28.588 44.8164 28.5878 44.8249 28.5895C44.8333 28.5912 44.8412 28.5948 44.8481 28.6001C44.9381 28.6604 45.0273 28.7213 45.1154 28.784C45.8496 29.3065 46.5163 29.9186 47.1002 30.6063C47.6645 31.2692 48.1781 32.0056 48.5217 32.8101Z" fill="white"/>
<path d="M32.8061 2.46255C33.425 2.46255 33.9267 1.95829 33.9267 1.33625C33.9267 0.71422 33.425 0.209961 32.8061 0.209961C32.1873 0.209961 31.6855 0.71422 31.6855 1.33625C31.6855 1.95829 32.1873 2.46255 32.8061 2.46255Z" fill="#F1F1F1"/>
<path d="M46.7398 17.535C47.1172 17.535 47.423 17.2275 47.423 16.8483C47.423 16.4691 47.1172 16.1616 46.7398 16.1616C46.3625 16.1616 46.0566 16.4691 46.0566 16.8483C46.0566 17.2275 46.3625 17.535 46.7398 17.535Z" fill="#F1F1F1"/>
<path d="M26.7457 19.419C27.123 19.419 27.4289 19.1116 27.4289 18.7323C27.4289 18.3531 27.123 18.0457 26.7457 18.0457C26.3684 18.0457 26.0625 18.3531 26.0625 18.7323C26.0625 19.1116 26.3684 19.419 26.7457 19.419Z" fill="#F1F1F1"/>
<path d="M27.1308 39.0001H50.9371C50.9536 39.0001 50.9695 38.9935 50.9812 38.9817C50.993 38.9699 50.9995 38.954 50.9995 38.9373C50.9995 38.9207 50.993 38.9047 50.9812 38.8929C50.9695 38.8811 50.9536 38.8745 50.9371 38.8745H27.1308C27.1143 38.8745 27.0984 38.8811 27.0867 38.8929C27.0749 38.9047 27.0684 38.9207 27.0684 38.9373C27.0684 38.954 27.0749 38.9699 27.0867 38.9817C27.0984 38.9935 27.1143 39.0001 27.1308 39.0001Z" fill="#CBCBCB"/>
<path d="M48.31 6.06878C48.3413 5.84572 48.29 5.61887 48.166 5.43124C48.042 5.24361 47.8538 5.10822 47.6371 5.05073C47.4204 4.99325 47.1902 5.01765 46.9902 5.11933C46.7902 5.221 46.6343 5.39289 46.5519 5.6024L44.6201 7.82837L45.1869 9.41957L47.1297 6.81861C47.2565 6.85943 47.3907 6.87181 47.5227 6.85489C47.6548 6.83796 47.7815 6.79214 47.894 6.72065C48.0066 6.64916 48.1021 6.55374 48.174 6.44112C48.2459 6.32849 48.2923 6.20139 48.31 6.06878Z" fill="#FFB7B7"/>
<path d="M40.303 14.73L46.7156 7.85138L45.8507 6.46924L37.8076 13.3061L40.303 14.73Z" fill="#3F3D56"/>
<path d="M38.8715 10.5508C40.1138 10.5508 41.1209 9.53857 41.1209 8.28992C41.1209 7.04128 40.1138 6.02905 38.8715 6.02905C37.6292 6.02905 36.6221 7.04128 36.6221 8.28992C36.6221 9.53857 37.6292 10.5508 38.8715 10.5508Z" fill="#2F2E41"/>
<path d="M39.0527 7.0126C39.5368 6.51926 40.1225 6.13855 40.7687 5.89729C41.1835 5.74284 41.635 5.64741 42.0687 5.73512C42.5024 5.82284 42.9125 6.12437 43.0335 6.55203C43.1324 6.90174 43.0302 7.27826 42.8767 7.60745C42.7232 7.93665 42.5182 8.24191 42.394 8.58339C42.2674 8.93181 42.2293 9.30653 42.2832 9.67351C42.3372 10.0405 42.4814 10.3881 42.703 10.6848C42.9245 10.9816 43.2162 11.218 43.5517 11.3726C43.8872 11.5273 44.2558 11.5952 44.624 11.5704C44.1979 11.6278 43.8052 11.8291 43.3887 11.9362C42.9722 12.0433 42.4806 12.0361 42.1711 11.7362C41.8436 11.4189 41.8371 10.903 41.8529 10.4461C41.8765 9.76686 41.9 9.08766 41.9235 8.40845C41.9355 8.06207 41.9458 7.70459 41.8215 7.38129C41.6972 7.058 41.4018 6.7749 41.057 6.77784C40.7957 6.78007 40.5644 6.9392 40.3548 7.09612C40.1452 7.25305 39.9234 7.42048 39.6631 7.44382C39.4028 7.46716 39.1055 7.27353 39.125 7.01158L39.0527 7.0126Z" fill="#2F2E41"/>
<path d="M30.3285 23.4705C30.1126 23.5308 29.8821 23.5094 29.6808 23.4103C29.4796 23.3113 29.3214 23.1414 29.2364 22.933C29.1514 22.7246 29.1454 22.492 29.2195 22.2795C29.2937 22.0669 29.4429 21.889 29.6388 21.7796L31.582 19.5637L33.2257 19.9206L30.9139 22.1964C30.9708 22.3174 31.0005 22.4495 31.0011 22.5833C31.0016 22.7171 30.973 22.8494 30.9172 22.9709C30.8614 23.0923 30.7797 23.2 30.678 23.2864C30.5763 23.3727 30.457 23.4356 30.3285 23.4705Z" fill="#FFB7B7"/>
<path d="M36.7211 15.5376L31.8777 21.6483L30.4014 20.967L36.0942 12.0588L36.7211 15.5376Z" fill="#3F3D56"/>
<path d="M32.8565 33.9892L31.7021 33.9709L31.841 37.9253H32.8563L32.8565 33.9892Z" fill="#FFB7B7"/>
<path d="M33.1157 37.5921L31.1161 37.592H31.1161C30.7781 37.5921 30.454 37.727 30.215 37.9672C29.9761 38.2074 29.8418 38.5331 29.8418 38.8728V38.9144L33.1156 38.9145L33.1157 37.5921Z" fill="#2F2E41"/>
<path d="M40.4993 32.9404L39.2383 33.7541L41.7606 36.8041L42.615 36.2527L40.4993 32.9404Z" fill="#FFB7B7"/>
<path d="M42.6542 35.8315L40.9716 36.9173L40.9715 36.9173C40.6872 37.1009 40.487 37.3904 40.415 37.7223C40.343 38.0542 40.4051 38.4012 40.5877 38.687L40.6101 38.7221L43.365 36.9443L42.6542 35.8315Z" fill="#2F2E41"/>
<path d="M40.949 20.8653C40.949 20.8653 38.1472 11.5123 37.2468 11.3859C36.3464 11.2595 34.8957 13.7858 34.8957 13.7858C33.0147 16.1979 31.0752 24.0113 31.0752 24.0113C31.0752 24.0113 34.3085 24.2146 36.6721 25.4785C39.0356 26.7424 41.8249 25.4145 41.8249 25.4145L40.949 20.8653Z" fill="#3F3D56"/>
<path opacity="0.1" d="M40.949 20.8652C40.949 20.8652 38.1472 11.5123 37.2468 11.3859C36.3464 11.2595 35.2642 13.8114 35.2642 13.8114C34.3269 17.7051 31.0752 24.0112 31.0752 24.0112C31.0752 24.0112 34.3085 24.2146 36.6721 25.4785C39.0356 26.7424 41.8249 25.4145 41.8249 25.4145L40.949 20.8652Z" fill="black"/>
<path d="M38.6498 18.067V22.7668L39.2001 29.5748L41.9493 34.7246L40.6372 35.6666L36.8882 30.768L35.4054 25.9041L33.0767 36.6714L31.3271 36.5458L32.5422 21.6171L34.8479 17.415L38.6498 18.067Z" fill="#2F2E41"/>
<path d="M35.8249 13.5213C34.9501 14.4005 35.7624 15.3425 35.7624 15.3425L34.7627 17.6034L38.6992 18.671L40.0748 12.4927L39.1376 11.4878C37.263 11.425 37.262 11.386 37.262 11.386C36.9336 11.709 35.8249 13.5213 35.8249 13.5213Z" fill="#FFEAD7"/>
<path d="M40.2339 11.8527C40.0551 11.72 39.8519 11.6244 39.6361 11.5712C39.4202 11.5181 39.196 11.5085 38.9765 11.543C38.757 11.5776 38.5464 11.6555 38.3571 11.7724C38.1677 11.8893 38.0033 12.0428 37.8734 12.224C36.8838 13.609 35.9688 15.8453 37.2295 18.6344C39.2539 23.1127 41.0156 25.4053 41.7318 25.4051C41.7631 25.4053 41.7942 25.4004 41.8238 25.3905C42.2647 25.2402 42.9021 24.4905 43.0174 23.8297C43.0588 23.5933 43.0489 23.2638 42.7675 23.0377C41.9593 22.3879 40.5083 20.3647 40.0556 17.7018C39.8055 16.2303 40.2906 14.89 40.7416 14.0247C40.9321 13.6667 40.9878 13.2517 40.8985 12.8557C40.8093 12.4597 40.581 12.1093 40.2556 11.8688L40.2339 11.8527Z" fill="#3F3D56"/>
<path d="M38.9867 10.3286C39.7891 9.88777 40.084 8.87656 39.6454 8.07005C39.2067 7.26355 38.2006 6.96714 37.3982 7.40802C36.5958 7.8489 36.3009 8.8601 36.7395 9.66661C37.1782 10.4731 38.1843 10.7695 38.9867 10.3286Z" fill="#FFB7B7"/>
<path d="M35.8643 8.74236H38.2552L38.2798 8.39734L38.4023 8.74236H38.7705L38.8191 8.05854L39.0621 8.74236H39.7744V8.70849C39.7739 8.23242 39.5855 7.776 39.2506 7.43937C38.9156 7.10274 38.4616 6.91338 37.9879 6.91284H37.6508C37.1771 6.91338 36.723 7.10273 36.3881 7.43937C36.0532 7.776 35.8648 8.23242 35.8643 8.70849V8.74236Z" fill="#2F2E41"/>
<path d="M39.4128 9.98264L40.4331 9.64987V7.15942H38.5059L38.5536 7.20731C39.2174 7.87369 39.9558 10.2379 39.4128 9.98264Z" fill="#2F2E41"/>
</g>
<defs>
<clipPath id="clip0_1_2198">
<rect width="51" height="39" fill="white"/>
</clipPath>
</defs>
</svg>
