<svg width="53" height="34" viewBox="0 0 53 34" fill="none" xmlns="http://www.w3.org/2000/svg">
<g clip-path="url(#clip0_1_2232)">
<path d="M43.8827 33.9515L44.0262 33.9486C43.9707 32.3331 43.8005 30.7237 43.517 29.1329C42.8967 25.727 41.8654 23.4902 40.4515 22.4846L40.3691 22.6035C43.6719 24.9526 43.881 33.8617 43.8827 33.9515Z" fill="#2F2E41"/>
<path d="M42.0894 33.9168L42.2329 33.9139C42.2298 33.753 42.1401 29.9608 40.6663 28.9126L40.584 29.0315C41.9983 30.0374 42.0887 33.8781 42.0894 33.9168Z" fill="#2F2E41"/>
<path d="M39.5531 22.6168C39.9492 22.6168 40.2703 22.2915 40.2703 21.8903C40.2703 21.4891 39.9492 21.1638 39.5531 21.1638C39.157 21.1638 38.8359 21.4891 38.8359 21.8903C38.8359 22.2915 39.157 22.6168 39.5531 22.6168Z" fill="#FFEAD7"/>
<path d="M39.9076 28.8646C40.3037 28.8646 40.6248 28.5393 40.6248 28.1381C40.6248 27.7369 40.3037 27.4116 39.9076 27.4116C39.5115 27.4116 39.1904 27.7369 39.1904 28.1381C39.1904 28.5393 39.5115 28.8646 39.9076 28.8646Z" fill="#FFEAD7"/>
<path d="M42.4234 23.0522C42.2886 23.9242 42.6399 24.7043 42.6399 24.7043C42.6399 24.7043 43.2097 24.0703 43.3445 23.1982C43.4793 22.3261 43.128 21.5461 43.128 21.5461C43.128 21.5461 42.5582 22.1801 42.4234 23.0522Z" fill="#2F2E41"/>
<path d="M40.0795 25.1703C40.9037 25.4567 41.7232 25.2422 41.7232 25.2422C41.7232 25.2422 41.2062 24.5634 40.382 24.277C39.5577 23.9906 38.7383 24.2051 38.7383 24.2051C38.7383 24.2051 39.2552 24.8839 40.0795 25.1703Z" fill="#2F2E41"/>
<path d="M40.0524 30.7033C40.4254 30.822 40.8227 30.8393 41.2045 30.7537C40.9621 30.441 40.6356 30.2061 40.2644 30.0771C39.8932 29.9481 39.4931 29.9306 39.1123 30.0267C39.3618 30.3317 39.6859 30.565 40.0524 30.7033Z" fill="#2F2E41"/>
<path d="M23.3156 11.2749L18.6917 8.83931C18.6917 8.83931 17.139 7.10711 16.1638 6.3247C15.1886 5.54229 14.8884 6.11708 14.8884 6.11708L14.4785 6.80916L15.4692 8.20489L18.1451 10.5003L22.9266 12.3975C23.0014 12.5215 23.1094 12.6215 23.238 12.6858C23.3667 12.7502 23.5107 12.7762 23.6534 12.7609C23.7961 12.7456 23.9315 12.6897 24.0441 12.5995C24.1566 12.5093 24.2415 12.3887 24.2891 12.2515C24.3366 12.1144 24.3447 11.9664 24.3125 11.8248C24.2803 11.6832 24.2091 11.5537 24.1072 11.4514C24.0053 11.3491 23.8768 11.2783 23.7366 11.247C23.5965 11.2158 23.4505 11.2255 23.3156 11.2749Z" fill="#9F616A"/>
<path d="M11.288 9.16841L11.0142 7.47188L10.2413 7.27612C10.2413 7.27612 9.6278 7.08471 9.48441 8.33645C9.34101 9.5882 9.45219 11.9253 9.45219 11.9253L7.88278 16.9595C7.75224 17.0211 7.64163 17.1189 7.56384 17.2416C7.48604 17.3643 7.44427 17.5069 7.44337 17.6527C7.44248 17.7986 7.48251 17.9417 7.55879 18.0654C7.63507 18.1891 7.74448 18.2883 7.87426 18.3514C8.00404 18.4146 8.14886 18.4391 8.29186 18.4221C8.43485 18.4051 8.57014 18.3473 8.68196 18.2554C8.79378 18.1635 8.87754 18.0414 8.92348 17.9031C8.96942 17.7649 8.97565 17.6163 8.94144 17.4746L10.9982 12.7083L11.288 9.16841Z" fill="#9F616A"/>
<path d="M17.6819 32.9768L18.6933 32.9767L19.1745 29.0247L17.6816 29.0247L17.6819 32.9768Z" fill="#9F616A"/>
<path d="M17.4238 32.6422L19.4158 32.6421H19.4159C19.7526 32.6421 20.0754 32.7776 20.3135 33.0187C20.5516 33.2599 20.6853 33.587 20.6853 33.928V33.9698L17.4239 33.9699L17.4238 32.6422Z" fill="#2F2E41"/>
<path d="M6.64956 32.9768L7.66108 32.9767L8.14224 29.0247L6.64941 29.0247L6.64956 32.9768Z" fill="#9F616A"/>
<path d="M6.3916 32.6422L8.38359 32.6421H8.38367C8.72034 32.6421 9.04322 32.7776 9.28128 33.0187C9.51935 33.2599 9.6531 33.587 9.65312 33.928V33.9698L6.39166 33.9699L6.3916 32.6422Z" fill="#2F2E41"/>
<path d="M11.643 5.77954L9.96528 7.23031L11.3421 11.644L11.6528 12.6295C11.6528 12.6295 9.75582 14.4013 8.58209 19.3505C7.40837 24.2998 5.48828 30.8761 5.48828 30.8761L9.54125 32.0514L12.8386 20.8556L16.7171 29.639L17.1649 32.2369L20.6164 31.206L19.8022 24.6906L15.7314 13.4124L16.1542 10.4228C16.1542 10.4228 16.7893 8.93055 15.6861 7.35067L15.3401 5.86616L14.1006 5.55688L11.643 5.77954Z" fill="#2F2E41"/>
<path d="M14.4298 4.99086H9.89391C9.80061 4.99075 9.71116 4.95316 9.64518 4.88633C9.57921 4.8195 9.5421 4.72888 9.54199 4.63437V2.65387C9.54199 1.95002 9.81801 1.275 10.3093 0.7773C10.8006 0.279603 11.467 0 12.1619 0C12.8567 0 13.523 0.279603 14.0144 0.7773C14.5057 1.275 14.7817 1.95002 14.7817 2.65387V4.63437C14.7816 4.72888 14.7445 4.8195 14.6785 4.88633C14.6125 4.95316 14.5231 4.99075 14.4298 4.99086Z" fill="#2F2E41"/>
<path d="M14.3859 3.93224C14.8947 2.98933 14.5526 1.80711 13.6218 1.29167C12.691 0.776229 11.5239 1.12276 11.0151 2.06567C10.5062 3.00857 10.8483 4.1908 11.7792 4.70623C12.71 5.22167 13.877 4.87514 14.3859 3.93224Z" fill="#9F616A"/>
<path d="M15.4021 2.85183H12.6285L12.6001 2.44846L12.4579 2.85183H12.0308L11.9744 2.05236L11.6926 2.85183H10.8662V2.81222C10.8668 2.25564 11.0854 1.72203 11.4739 1.32847C11.8624 0.934901 12.3892 0.71352 12.9386 0.712891H13.3297C13.8791 0.713519 14.4059 0.934899 14.7944 1.32846C15.1829 1.72203 15.4015 2.25564 15.4021 2.81222V2.85183Z" fill="#2F2E41"/>
<path d="M12.6059 5.36047C12.585 5.36045 12.5642 5.35859 12.5436 5.3549L10.5127 4.99191V1.5918H12.7484L12.693 1.65717C11.9229 2.56696 12.5031 4.0422 12.9175 4.84059C12.948 4.89906 12.9616 4.96509 12.9568 5.03106C12.9519 5.09703 12.9287 5.16026 12.8899 5.21348C12.8574 5.25899 12.8147 5.29604 12.7654 5.32159C12.716 5.34714 12.6614 5.36047 12.6059 5.36047Z" fill="#2F2E41"/>
<path d="M29.4011 23.1858L11.6019 29.5606C11.1618 29.7177 10.6782 29.6915 10.2572 29.4878C9.83611 29.2841 9.51203 28.9195 9.356 28.4741L6.29835 19.7136C6.14331 19.2678 6.16917 18.7779 6.37025 18.3514C6.57134 17.9249 6.93122 17.5966 7.37095 17.4386L25.1701 11.0638C25.6102 10.9068 26.0938 10.933 26.5149 11.1366C26.9359 11.3403 27.26 11.7049 27.416 12.1503L30.4737 20.9108C30.6287 21.3566 30.6028 21.8465 30.4018 22.273C30.2007 22.6995 29.8408 23.0278 29.4011 23.1858Z" fill="white"/>
<path d="M30.4743 20.9106L30.4905 20.957C30.639 21.3827 30.6145 21.8508 30.4223 22.2582C30.2302 22.6656 29.8861 22.979 29.4658 23.1295L11.5776 29.5361C11.1574 29.6866 10.6955 29.6618 10.2933 29.4672C9.89117 29.2727 9.58177 28.9243 9.43317 28.4987L9.41699 28.4523L30.4743 20.9106Z" fill="#F2F2F2"/>
<path d="M10.4913 19.4724C9.31143 20.2588 7.79934 19.667 7.27051 18.8049L7.35482 18.7564C8.35924 18.1222 9.85088 18.4755 10.4913 19.4724Z" fill="#FFEAD7"/>
<path d="M25.2757 21.7036C24.987 21.8071 24.7269 21.8023 24.5028 21.6895C23.9963 21.4346 23.7586 20.6787 23.5676 20.0712C23.5121 19.8945 23.4596 19.7276 23.4061 19.5912L23.4054 19.5891C23.3124 19.3185 23.3286 19.0216 23.4504 18.763C23.5723 18.5044 23.7899 18.3049 24.0561 18.2079L26.4503 17.3505C26.7387 17.2472 26.9984 17.2519 27.2223 17.3645C27.7287 17.6191 27.9666 18.3748 28.1578 18.982C28.2135 19.159 28.2661 19.3263 28.3198 19.4629C28.4133 19.7338 28.3974 20.0311 28.2756 20.2902C28.1538 20.5493 27.9359 20.7492 27.6693 20.8464L25.2757 21.7036ZM23.5057 19.5524C23.5604 19.6921 23.6133 19.8603 23.6693 20.0385C23.8541 20.6264 24.0842 21.3582 24.5503 21.5928C24.7503 21.6934 24.976 21.6964 25.2402 21.6018L27.6336 20.7446C27.8733 20.6573 28.0694 20.4776 28.1792 20.2447C28.289 20.0119 28.3036 19.7445 28.2199 19.5007C28.1657 19.3627 28.1125 19.1937 28.0561 19.0148C27.8711 18.427 27.6408 17.6955 27.1749 17.4613C26.9751 17.3608 26.7496 17.3579 26.4858 17.4523L24.0918 18.3097C23.8523 18.397 23.6565 18.5765 23.5468 18.8091C23.437 19.0417 23.4223 19.3088 23.5057 19.5524Z" fill="#3F3D56"/>
<path d="M9.99526 19.7557C9.57456 19.9035 9.12136 19.9287 8.6872 19.8286C8.05317 19.6875 7.47775 19.3041 7.18554 18.8279L7.15625 18.7801L7.28784 18.7043C8.30737 18.0611 9.83619 18.4098 10.4961 19.4368L10.525 19.4819L10.4807 19.5114C10.3293 19.6125 10.1663 19.6945 9.99526 19.7557ZM7.30629 18.818C7.59226 19.2484 8.12441 19.5927 8.71009 19.723C9.2794 19.8577 9.87818 19.7599 10.3768 19.4506C9.73126 18.5047 8.30113 18.191 7.34338 18.7966L7.30629 18.818Z" fill="#3F3D56"/>
<path d="M10.6205 26.0433C10.4711 26.1032 10.3083 26.1208 10.1497 26.0941C9.99114 26.0674 9.84273 25.9975 9.7204 25.8919C9.57722 25.7651 9.46868 25.6031 9.40524 25.4216C9.3418 25.24 9.32559 25.0449 9.35818 24.8551C9.38845 24.6918 9.46276 24.5402 9.57288 24.4171C9.68299 24.2939 9.82461 24.2041 9.98204 24.1575L13.172 23.015C13.3234 22.9514 13.4892 22.9314 13.6511 22.9572C13.8129 22.983 13.9647 23.0536 14.0895 23.1612C14.2326 23.288 14.341 23.45 14.4044 23.6316C14.4677 23.8132 14.4839 24.0083 14.4512 24.198C14.3882 24.5314 14.166 24.7771 13.8272 24.8947L10.6372 26.0372C10.6316 26.0393 10.6261 26.0413 10.6205 26.0433ZM10.0019 24.2648C9.86577 24.3074 9.74368 24.3867 9.64873 24.4943C9.55377 24.6019 9.48955 24.7336 9.46295 24.8754C9.43359 25.0463 9.4482 25.2221 9.50535 25.3857C9.56251 25.5493 9.6603 25.6952 9.78929 25.8094C9.89987 25.9043 10.0342 25.9663 10.1775 25.9886C10.3208 26.0109 10.4673 25.9925 10.6009 25.9356L13.7924 24.7925C13.9318 24.7518 14.0573 24.6728 14.1551 24.5643C14.2529 24.4558 14.3191 24.322 14.3465 24.1777C14.3759 24.0067 14.3613 23.831 14.3043 23.6674C14.2472 23.5038 14.1494 23.3579 14.0205 23.2437C13.9098 23.1488 13.7754 23.0868 13.632 23.0644C13.4887 23.042 13.3421 23.06 13.2083 23.1166L10.0165 24.2597C10.0116 24.2614 10.0067 24.2631 10.0019 24.2648Z" fill="#3F3D56"/>
<path d="M25.2977 19.1261L24.2921 19.4863C24.2254 19.5101 24.1521 19.5062 24.0883 19.4753C24.0244 19.4445 23.9753 19.3892 23.9518 19.3216C23.9282 19.2541 23.9321 19.1798 23.9626 19.1152C23.993 19.0505 24.0476 19.0008 24.1143 18.9769L25.1199 18.6168C25.1866 18.5929 25.2599 18.5968 25.3237 18.6277C25.3875 18.6586 25.4366 18.7139 25.4602 18.7814C25.4838 18.8489 25.4799 18.9232 25.4494 18.9878C25.4189 19.0525 25.3643 19.1022 25.2977 19.1261Z" fill="#FFEAD7"/>
<path d="M25.5818 19.941L24.5762 20.3012C24.5096 20.3251 24.4363 20.3211 24.3724 20.2903C24.3086 20.2594 24.2595 20.2041 24.236 20.1366C24.2124 20.069 24.2163 19.9948 24.2467 19.9301C24.2772 19.8655 24.3318 19.8157 24.3985 19.7919L25.4041 19.4317C25.4707 19.4078 25.5441 19.4118 25.6079 19.4426C25.6717 19.4735 25.7208 19.5288 25.7444 19.5963C25.7679 19.6639 25.7641 19.7381 25.7336 19.8028C25.7031 19.8674 25.6485 19.9172 25.5818 19.941Z" fill="#FFEAD7"/>
<path d="M25.866 20.756L24.8604 21.1161C24.8274 21.128 24.7924 21.1331 24.7574 21.1312C24.7225 21.1293 24.6882 21.1205 24.6566 21.1052C24.625 21.0899 24.5967 21.0685 24.5733 21.0421C24.5499 21.0157 24.5318 20.985 24.5201 20.9515C24.5085 20.9181 24.5034 20.8826 24.5053 20.8472C24.5071 20.8118 24.5158 20.7771 24.5309 20.7451C24.546 20.7131 24.5672 20.6844 24.5932 20.6606C24.6192 20.6369 24.6496 20.6186 24.6827 20.6068L25.6883 20.2466C25.7213 20.2348 25.7563 20.2297 25.7912 20.2316C25.8262 20.2335 25.8605 20.2423 25.8921 20.2576C25.9237 20.2729 25.952 20.2943 25.9754 20.3207C25.9988 20.347 26.0169 20.3778 26.0285 20.4113C26.0402 20.4447 26.0453 20.4802 26.0434 20.5156C26.0416 20.551 26.0328 20.5857 26.0178 20.6177C26.0027 20.6497 25.9815 20.6784 25.9555 20.7021C25.9294 20.7259 25.899 20.7442 25.866 20.756Z" fill="#FFEAD7"/>
<path d="M27.0574 18.496L26.0518 18.8561C26.0188 18.8679 25.9838 18.8731 25.9489 18.8712C25.9139 18.8693 25.8796 18.8605 25.848 18.8452C25.8164 18.8299 25.7881 18.8085 25.7647 18.7821C25.7413 18.7557 25.7232 18.7249 25.7115 18.6915C25.6999 18.6581 25.6948 18.6226 25.6967 18.5872C25.6985 18.5518 25.7072 18.5171 25.7223 18.4851C25.7374 18.453 25.7586 18.4244 25.7846 18.4006C25.8107 18.3769 25.841 18.3586 25.8741 18.3468L26.8797 17.9866C26.9463 17.9628 27.0196 17.9667 27.0835 17.9976C27.1473 18.0284 27.1964 18.0837 27.2199 18.1513C27.2435 18.2188 27.2396 18.2931 27.2092 18.3577C27.1787 18.4224 27.1241 18.4721 27.0574 18.496Z" fill="#FFEAD7"/>
<path d="M27.3416 19.3109L26.336 19.6711C26.303 19.6829 26.268 19.688 26.233 19.6861C26.1981 19.6843 26.1638 19.6754 26.1322 19.6601C26.1006 19.6449 26.0723 19.6234 26.0489 19.597C26.0255 19.5707 26.0074 19.5399 25.9957 19.5064C25.984 19.473 25.979 19.4376 25.9808 19.4021C25.9827 19.3667 25.9914 19.332 26.0065 19.3C26.0216 19.268 26.0428 19.2393 26.0688 19.2156C26.0948 19.1919 26.1252 19.1736 26.1582 19.1617L27.1638 18.8016C27.1969 18.7898 27.2318 18.7846 27.2668 18.7865C27.3018 18.7884 27.336 18.7972 27.3676 18.8125C27.3992 18.8278 27.4276 18.8492 27.451 18.8756C27.4744 18.902 27.4925 18.9328 27.5041 18.9662C27.5158 18.9996 27.5209 19.0351 27.519 19.0705C27.5172 19.1059 27.5084 19.1406 27.4933 19.1727C27.4783 19.2047 27.4571 19.2333 27.431 19.2571C27.405 19.2808 27.3746 19.2991 27.3416 19.3109Z" fill="#FFEAD7"/>
<path d="M27.6258 20.1256L26.6202 20.4858C26.5535 20.5096 26.4802 20.5057 26.4164 20.4748C26.3526 20.444 26.3035 20.3887 26.2799 20.3211C26.2563 20.2536 26.2602 20.1793 26.2907 20.1147C26.3212 20.05 26.3757 20.0003 26.4424 19.9764L27.448 19.6163C27.481 19.6045 27.516 19.5993 27.551 19.6012C27.586 19.6031 27.6202 19.6119 27.6518 19.6272C27.6834 19.6425 27.7117 19.6639 27.7352 19.6903C27.7586 19.7167 27.7766 19.7475 27.7883 19.7809C27.8 19.8143 27.805 19.8498 27.8032 19.8852C27.8013 19.9206 27.7926 19.9553 27.7775 19.9874C27.7624 20.0194 27.7413 20.048 27.7152 20.0718C27.6892 20.0955 27.6588 20.1138 27.6258 20.1256Z" fill="#FFEAD7"/>
<path d="M28.0818 14.0572L7.02441 21.5989L7.05997 21.7007L28.1174 14.159L28.0818 14.0572Z" fill="#3F3D56"/>
<path d="M29.4011 23.1858L11.6019 29.5606C11.1618 29.7177 10.6782 29.6915 10.2572 29.4878C9.83611 29.2841 9.51203 28.9195 9.356 28.4741L6.29835 19.7136C6.14331 19.2678 6.16917 18.7779 6.37025 18.3514C6.57134 17.9249 6.93122 17.5966 7.37095 17.4386L25.1701 11.0638C25.6102 10.9068 26.0938 10.933 26.5149 11.1366C26.9359 11.3403 27.26 11.7049 27.416 12.1503L30.4737 20.9108C30.6287 21.3566 30.6028 21.8465 30.4018 22.273C30.2007 22.6995 29.8408 23.0278 29.4011 23.1858ZM7.40651 17.5404C6.99343 17.6889 6.65536 17.9973 6.46646 18.398C6.27756 18.7986 6.25327 19.2588 6.39891 19.6776L9.45656 28.4381C9.60313 28.8565 9.90758 29.199 10.3031 29.3903C10.6986 29.5817 11.1529 29.6063 11.5663 29.4587L29.3655 23.084C29.7786 22.9355 30.1167 22.6271 30.3056 22.2264C30.4945 21.8258 30.5188 21.3656 30.3731 20.9468L27.3155 12.1864C27.1689 11.7679 26.8644 11.4255 26.4689 11.2341C26.0734 11.0428 25.6191 11.0181 25.2057 11.1657L7.40651 17.5404Z" fill="#3F3D56"/>
<path d="M52.9283 34H0.0717185C0.0526976 34 0.0344557 33.9924 0.0210058 33.9788C0.00755598 33.9651 0 33.9467 0 33.9274C0 33.9081 0.00755598 33.8896 0.0210058 33.876C0.0344557 33.8624 0.0526976 33.8547 0.0717185 33.8547H52.9283C52.9473 33.8547 52.9655 33.8624 52.979 33.876C52.9924 33.8896 53 33.9081 53 33.9274C53 33.9467 52.9924 33.9651 52.979 33.9788C52.9655 33.9924 52.9473 34 52.9283 34Z" fill="#CBCBCB"/>
</g>
<defs>
<clipPath id="clip0_1_2232">
<rect width="53" height="34" fill="white"/>
</clipPath>
</defs>
</svg>
